<svg xmlns="http://www.w3.org/2000/svg" version="1.1" xmlns:xlink="http://www.w3.org/1999/xlink" xmlns:svgjs="http://svgjs.dev/svgjs" width="1500" height="1500" viewBox="0 0 1500 1500"><rect width="1500" height="1500" fill="#ffffff"></rect><g transform="matrix(0.6666666666666666,0,0,0.6666666666666666,249.39393939393938,570.4305171413108)"><svg viewBox="0 0 396 142" data-background-color="#ffffff" preserveAspectRatio="xMidYMid meet" height="537" width="1500" xmlns="http://www.w3.org/2000/svg" xmlns:xlink="http://www.w3.org/1999/xlink"><g id="tight-bounds" transform="matrix(1,0,0,1,0.2400000000000091,0.22588426238510806)"><svg viewBox="0 0 395.52 141.54823147522978" height="141.54823147522978" width="395.52"><g><svg viewBox="0 0 580.6474657170888 207.8014307312602" height="141.54823147522978" width="395.52"><g transform="matrix(1,0,0,1,185.12746571708885,28.71930048456636)"><svg viewBox="0 0 395.52 150.3628297621275" height="150.3628297621275" width="395.52"><g id="textblocktransform"><svg viewBox="0 0 395.52 150.3628297621275" height="150.3628297621275" width="395.52" id="textblock"><g><svg viewBox="0 0 395.52 106.13508196721311" height="106.13508196721311" width="395.52"><g transform="matrix(1,0,0,1,0,0)"><svg width="395.52" viewBox="1.03 -40.6 153.38 41.160000000000004" height="106.13508196721311" data-palette-color="url(#aaa6a119-aa8e-4b08-87a4-6044955d426a)"><g class="wordmark-text-0" data-fill-palette-color="primary" id="text-0"></g></svg></g></svg></g><g transform="matrix(1,0,0,1,0,131.19102757770492)"><svg viewBox="0 0 232.209792 19.17180218442256" height="19.17180218442256" width="232.209792"><g transform="matrix(1,0,0,1,0,0)"><svg width="232.209792" viewBox="1.1 -35.5 502.58 41.5" height="19.17180218442256" data-palette-color="url(#443f57ad-e9c7-4e0f-b08a-7cf2d822c682)"></svg></g></svg></g></svg></g></svg></g><g><svg viewBox="0 0 160.07152010659706 207.8014307312602" height="207.8014307312602" width="160.07152010659706"><g><svg xmlns="http://www.w3.org/2000/svg" xmlns:xlink="http://www.w3.org/1999/xlink" version="1.1" x="0" y="0" viewBox="0 0 77.031 100" enable-background="new 0 0 77.031 100" xml:space="preserve" width="160.07152010659706" height="207.8014307312602" class="icon-icon-0" data-fill-palette-color="accent" id="icon-0"></svg></g></svg></g></svg></g><defs></defs><mask id="03ccd1f9-dfc8-49bf-9636-963f23ddbfd7"><g id="SvgjsG1005"><svg viewBox="0 0 395.52 141.54823147522978" height="141.54823147522978" width="395.52"><g><svg viewBox="0 0 580.6474657170888 207.8014307312602" height="141.54823147522978" width="395.52"><g transform="matrix(1,0,0,1,185.12746571708885,28.71930048456636)"><svg viewBox="0 0 395.52 150.3628297621275" height="150.3628297621275" width="395.52"><g id="SvgjsG1004"><svg viewBox="0 0 395.52 150.3628297621275" height="150.3628297621275" width="395.52" id="SvgjsSvg1003"><g><svg viewBox="0 0 395.52 106.13508196721311" height="106.13508196721311" width="395.52"><g transform="matrix(1,0,0,1,0,0)"><svg width="395.52" viewBox="1.03 -40.6 153.38 41.160000000000004" height="106.13508196721311" data-palette-color="url(#aaa6a119-aa8e-4b08-87a4-6044955d426a)"><g class="wordmark-text-0" data-fill-palette-color="primary" id="SvgjsG1002"><path d="M4.15-2.59L4.15-20.36 1.03-20.92 1.03-22.95 8.11-24.73 8.11-18.51Q13.72-24.73 16.55-24.73L16.55-24.73Q18.87-24.73 20.83-22.88L20.83-22.88 19.56-18.92 18.41-18.92Q18.41-20.12 16.58-20.7L16.58-20.7Q16.06-20.85 15.55-20.85L15.55-20.85Q12.96-20.85 8.11-15.65L8.11-15.65 8.11-2.59 12.94-2.03 12.94 0 1.03 0 1.03-2.03 4.15-2.59ZM42.36-5.59L42.36-5.59 43.75-4Q39.87-0.51 36.23 0.37L36.23 0.37Q35.42 0.56 34.64 0.56L34.64 0.56Q29.27 0.56 25.9-2.83L25.9-2.83Q22.56-6.15 22.56-11.5L22.56-11.5Q22.56-16.82 25.71-20.61L25.71-20.61Q29.17-24.73 34.71-24.73L34.71-24.73Q38.55-24.73 41.18-21.97L41.18-21.97Q43.99-19.09 43.99-14.48L43.99-14.48 42.84-13.45 26.93-12.3Q26.98-7.86 29.81-5.2L29.81-5.2Q32.35-2.86 35.72-2.86 39.08-2.86 42.36-5.59ZM27.1-14.6L27.1-14.6 39.65-15.75Q39.48-19.8 36.52-21.31L36.52-21.31Q35.47-21.85 33.84-21.85 32.2-21.85 30.92-21.04 29.64-20.24 28.81-19.09L28.81-19.09Q27.22-16.92 27.1-14.6ZM67.62-5.59L67.62-5.59 69.01-4Q65.13-0.51 61.49 0.37L61.49 0.37Q60.69 0.56 59.91 0.56L59.91 0.56Q54.56 0.56 51.26-2.83L51.26-2.83Q48.07-6.13 48.07-11.5L48.07-11.5Q48.07-16.87 51.26-20.61L51.26-20.61Q54.83-24.73 60.83-24.73L60.83-24.73Q64.84-24.73 67.91-23.41L67.91-23.41 67.33-18.51 65.79-18.51Q65.79-20.97 62.84-21.63L62.84-21.63Q61.91-21.85 60.25-21.85 58.59-21.85 56.99-21.08 55.39-20.31 54.37-19.04L54.37-19.04Q52.34-16.53 52.34-12.89L52.34-12.89Q52.34-8.42 54.54-5.74L54.54-5.74Q56.9-2.86 60.63-2.86 64.35-2.86 67.62-5.59ZM85.44-24.73L85.44-24.73Q88.49-24.73 91.52-23.54L91.52-23.54 91.52-36.06 87.79-36.82 87.79-38.79 95.48-40.6 95.48-3.91Q95.48-2.81 96.71-2.81 97.94-2.81 99.8-3.56L99.8-3.56 100.31-1.27Q96.82 0.56 95.09 0.56L95.09 0.56Q92.57 0.56 91.79-1.07L91.79-1.07Q91.52-1.66 91.52-2.47L91.52-2.47Q89.69-0.85 87.61-0.15 85.54 0.56 83.31 0.56 81.07 0.56 79-0.29 76.92-1.15 75.53-2.73L75.53-2.73Q72.82-5.83 72.82-11.5L72.82-11.5Q72.82-16.92 76.02-20.61L76.02-20.61Q79.56-24.73 85.44-24.73ZM85.44-2.86L85.44-2.86Q87.91-2.86 91.52-5.18L91.52-5.18 91.52-19.04Q89.42-21.85 84.83-21.85L84.83-21.85Q81.29-21.85 79.09-18.99L79.09-18.99Q77.04-16.28 77.04-12.01L77.04-12.01Q77.04-8.13 79-5.64L79-5.64Q81.14-2.86 85.44-2.86ZM102.46-11.87L102.46-11.87Q102.46-14.67 103.42-17.09 104.38-19.51 106.04-21.19L106.04-21.19Q109.46-24.73 114.47-24.73L114.47-24.73Q120.28-24.73 123.55-21.29L123.55-21.29Q126.65-17.99 126.65-12.67L126.65-12.67Q126.65-6.74 123.13-3.03L123.13-3.03Q119.72 0.56 114.69 0.56L114.69 0.56Q108.95 0.56 105.61-2.98L105.61-2.98Q102.46-6.3 102.46-11.87ZM108.71-19.15Q107.73-17.9 107.23-16.21 106.73-14.53 106.73-12.56 106.73-10.6 107.18-8.73 107.63-6.86 108.58-5.42L108.58-5.42Q110.68-2.29 114.64-2.29L114.64-2.29Q118.35-2.29 120.4-4.74L120.4-4.74Q122.43-7.13 122.43-11.21L122.43-11.21Q122.43-18.43 118.3-20.92L118.3-20.92Q116.76-21.85 114.66-21.85 112.56-21.85 111.12-21.13 109.68-20.41 108.71-19.15ZM152.21-21.56L143.15 0 139.76 0 130.6-21.56 128.41-22.12 128.41-24.15 137.9-24.15 137.9-22.12 135.09-21.56 142.37-3.96 149.23-21.68 146.47-22.12 146.47-24.15 154.41-24.15 154.41-22.12 152.21-21.56Z" fill="white"></path></g></svg></g></svg></g><g transform="matrix(1,0,0,1,0,131.19102757770492)"><svg viewBox="0 0 232.209792 19.17180218442256" height="19.17180218442256" width="232.209792"><g transform="matrix(1,0,0,1,0,0)"><svg width="232.209792" viewBox="1.1 -35.5 502.58 41.5" height="19.17180218442256" data-palette-color="url(#443f57ad-e9c7-4e0f-b08a-7cf2d822c682)"><path d="M9.2 0.5Q5.2 0.5 3.15-1.78 1.1-4.05 1.1-8.3L1.1-8.3 1.1-10.3 6.3-10.3 6.3-7.9Q6.3-4.5 9.15-4.5L9.15-4.5Q10.55-4.5 11.28-5.33 12-6.15 12-8L12-8Q12-10.2 11-11.88 10-13.55 7.3-15.9L7.3-15.9Q3.9-18.9 2.55-21.33 1.2-23.75 1.2-26.8L1.2-26.8Q1.2-30.95 3.3-33.23 5.4-35.5 9.4-35.5L9.4-35.5Q13.35-35.5 15.38-33.23 17.4-30.95 17.4-26.7L17.4-26.7 17.4-25.25 12.2-25.25 12.2-27.05Q12.2-28.85 11.5-29.68 10.8-30.5 9.45-30.5L9.45-30.5Q6.7-30.5 6.7-27.15L6.7-27.15Q6.7-25.25 7.73-23.6 8.75-21.95 11.45-19.6L11.45-19.6Q14.9-16.6 16.2-14.15 17.5-11.7 17.5-8.4L17.5-8.4Q17.5-4.1 15.38-1.8 13.25 0.5 9.2 0.5L9.2 0.5ZM28.6 0.5Q24.55 0.5 22.4-1.8 20.25-4.1 20.25-8.3L20.25-8.3 20.25-26.7Q20.25-30.9 22.4-33.2 24.55-35.5 28.6-35.5L28.6-35.5Q32.65-35.5 34.8-33.2 36.95-30.9 36.95-26.7L36.95-26.7 36.95-8.3Q36.95-4.1 34.8-1.8 32.65 0.5 28.6 0.5L28.6 0.5ZM28.6-4.5Q31.45-4.5 31.45-7.95L31.45-7.95 31.45-27.05Q31.45-30.5 28.6-30.5L28.6-30.5Q25.75-30.5 25.75-27.05L25.75-27.05 25.75-7.95Q25.75-4.5 28.6-4.5L28.6-4.5ZM40.64 0L40.64-35 55.2-35 55.2-30 46.14-30 46.14-20.25 53.24-20.25 53.24-15.25 46.14-15.25 46.14 0 40.64 0ZM62.64 0L62.64-30 56.89-30 56.89-35 73.89-35 73.89-30 68.14-30 68.14 0 62.64 0ZM78.99 0L75.44-35 80.74-35 83.19-8.1 83.29-8.1 85.89-35 91.89-35 94.49-8.1 94.59-8.1 97.04-35 101.79-35 98.24 0 91.39 0 88.89-23.6 88.79-23.6 86.29 0 78.99 0ZM102.44 0L108.14-35 115.59-35 121.29 0 115.79 0 114.79-6.95 114.79-6.85 108.54-6.85 107.54 0 102.44 0ZM109.19-11.6L114.14-11.6 111.69-28.9 111.59-28.9 109.19-11.6ZM123.94 0L123.94-35 132.09-35Q136.34-35 138.29-33.02 140.24-31.05 140.24-26.95L140.24-26.95 140.24-24.8Q140.24-19.35 136.64-17.9L136.64-17.9 136.64-17.8Q138.64-17.2 139.46-15.35 140.29-13.5 140.29-10.4L140.29-10.4 140.29-4.25Q140.29-2.75 140.39-1.83 140.49-0.9 140.89 0L140.89 0 135.29 0Q134.99-0.85 134.89-1.6 134.79-2.35 134.79-4.3L134.79-4.3 134.79-10.7Q134.79-13.1 134.01-14.05 133.24-15 131.34-15L131.34-15 129.44-15 129.44 0 123.94 0ZM129.44-20L131.44-20Q133.09-20 133.91-20.85 134.74-21.7 134.74-23.7L134.74-23.7 134.74-26.4Q134.74-28.3 134.06-29.15 133.39-30 131.94-30L131.94-30 129.44-30 129.44-20ZM144.08 0L144.08-35 159.08-35 159.08-30 149.58-30 149.58-20.75 157.13-20.75 157.13-15.75 149.58-15.75 149.58-5 159.08-5 159.08 0 144.08 0ZM162.48 6L164.28 0 162.48 0 162.48-5.3 167.78-5.3 167.78-0.55 165.03 6 162.48 6ZM179.88 0L179.88-35 194.43-35 194.43-30 185.38-30 185.38-20.25 192.48-20.25 192.48-15.25 185.38-15.25 185.38 0 179.88 0ZM197.07 0L197.07-35 202.57-35 202.57 0 197.07 0ZM206.67 0L206.67-35 213.57-35 218.92-14.05 219.02-14.05 219.02-35 223.92-35 223.92 0 218.27 0 211.67-25.55 211.57-25.55 211.57 0 206.67 0ZM226.57 0L232.27-35 239.72-35 245.42 0 239.92 0 238.92-6.95 238.92-6.85 232.67-6.85 231.67 0 226.57 0ZM233.32-11.6L238.27-11.6 235.82-28.9 235.72-28.9 233.32-11.6ZM248.07 0L248.07-35 254.97-35 260.32-14.05 260.42-14.05 260.42-35 265.32-35 265.32 0 259.67 0 253.07-25.55 252.97-25.55 252.97 0 248.07 0ZM277.16 0.5Q273.21 0.5 271.14-1.75 269.06-4 269.06-8.1L269.06-8.1 269.06-26.9Q269.06-31 271.14-33.25 273.21-35.5 277.16-35.5L277.16-35.5Q281.11-35.5 283.19-33.25 285.26-31 285.26-26.9L285.26-26.9 285.26-23.2 280.06-23.2 280.06-27.25Q280.06-30.5 277.31-30.5L277.31-30.5Q274.56-30.5 274.56-27.25L274.56-27.25 274.56-7.7Q274.56-4.5 277.31-4.5L277.31-4.5Q280.06-4.5 280.06-7.7L280.06-7.7 280.06-13.05 285.26-13.05 285.26-8.1Q285.26-4 283.19-1.75 281.11 0.5 277.16 0.5L277.16 0.5ZM288.56 0L288.56-35 303.56-35 303.56-30 294.06-30 294.06-20.75 301.61-20.75 301.61-15.75 294.06-15.75 294.06-5 303.56-5 303.56 0 288.56 0ZM306.96 6L308.76 0 306.96 0 306.96-5.3 312.26-5.3 312.26-0.55 309.51 6 306.96 6ZM324.35 0L324.35-35 332.5-35Q336.75-35 338.7-33.02 340.65-31.05 340.65-26.95L340.65-26.95 340.65-24.8Q340.65-19.35 337.05-17.9L337.05-17.9 337.05-17.8Q339.05-17.2 339.88-15.35 340.7-13.5 340.7-10.4L340.7-10.4 340.7-4.25Q340.7-2.75 340.8-1.83 340.9-0.9 341.3 0L341.3 0 335.7 0Q335.4-0.85 335.3-1.6 335.2-2.35 335.2-4.3L335.2-4.3 335.2-10.7Q335.2-13.1 334.43-14.05 333.65-15 331.75-15L331.75-15 329.85-15 329.85 0 324.35 0ZM329.85-20L331.85-20Q333.5-20 334.33-20.85 335.15-21.7 335.15-23.7L335.15-23.7 335.15-26.4Q335.15-28.3 334.48-29.15 333.8-30 332.35-30L332.35-30 329.85-30 329.85-20ZM344.5 0L344.5-35 359.5-35 359.5-30 350-30 350-20.75 357.55-20.75 357.55-15.75 350-15.75 350-5 359.5-5 359.5 0 344.5 0ZM369.9 0.5Q365.9 0.5 363.85-1.78 361.8-4.05 361.8-8.3L361.8-8.3 361.8-10.3 367-10.3 367-7.9Q367-4.5 369.85-4.5L369.85-4.5Q371.25-4.5 371.97-5.33 372.7-6.15 372.7-8L372.7-8Q372.7-10.2 371.7-11.88 370.7-13.55 368-15.9L368-15.9Q364.6-18.9 363.25-21.33 361.9-23.75 361.9-26.8L361.9-26.8Q361.9-30.95 364-33.23 366.1-35.5 370.1-35.5L370.1-35.5Q374.05-35.5 376.07-33.23 378.1-30.95 378.1-26.7L378.1-26.7 378.1-25.25 372.9-25.25 372.9-27.05Q372.9-28.85 372.2-29.68 371.5-30.5 370.15-30.5L370.15-30.5Q367.4-30.5 367.4-27.15L367.4-27.15Q367.4-25.25 368.42-23.6 369.45-21.95 372.15-19.6L372.15-19.6Q375.6-16.6 376.9-14.15 378.2-11.7 378.2-8.4L378.2-8.4Q378.2-4.1 376.07-1.8 373.95 0.5 369.9 0.5L369.9 0.5ZM389.3 0.5Q385.25 0.5 383.1-1.8 380.94-4.1 380.94-8.3L380.94-8.3 380.94-26.7Q380.94-30.9 383.1-33.2 385.25-35.5 389.3-35.5L389.3-35.5Q393.35-35.5 395.5-33.2 397.65-30.9 397.65-26.7L397.65-26.7 397.65-8.3Q397.65-4.1 395.5-1.8 393.35 0.5 389.3 0.5L389.3 0.5ZM389.3-4.5Q392.15-4.5 392.15-7.95L392.15-7.95 392.15-27.05Q392.15-30.5 389.3-30.5L389.3-30.5Q386.44-30.5 386.44-27.05L386.44-27.05 386.44-7.95Q386.44-4.5 389.3-4.5L389.3-4.5ZM401.34 0L401.34-35 406.84-35 406.84-5 415.89-5 415.89 0 401.34 0ZM426.54 0.5Q422.54 0.5 420.44-1.78 418.34-4.05 418.34-8.3L418.34-8.3 418.34-35 423.84-35 423.84-7.9Q423.84-6.1 424.56-5.3 425.29-4.5 426.64-4.5L426.64-4.5Q427.99-4.5 428.72-5.3 429.44-6.1 429.44-7.9L429.44-7.9 429.44-35 434.74-35 434.74-8.3Q434.74-4.05 432.64-1.78 430.54 0.5 426.54 0.5L426.54 0.5ZM442.94 0L442.94-30 437.19-30 437.19-35 454.19-35 454.19-30 448.44-30 448.44 0 442.94 0ZM456.84 0L456.84-35 462.34-35 462.34 0 456.84 0ZM474.38 0.5Q470.33 0.5 468.18-1.8 466.03-4.1 466.03-8.3L466.03-8.3 466.03-26.7Q466.03-30.9 468.18-33.2 470.33-35.5 474.38-35.5L474.38-35.5Q478.43-35.5 480.58-33.2 482.73-30.9 482.73-26.7L482.73-26.7 482.73-8.3Q482.73-4.1 480.58-1.8 478.43 0.5 474.38 0.5L474.38 0.5ZM474.38-4.5Q477.23-4.5 477.23-7.95L477.23-7.95 477.23-27.05Q477.23-30.5 474.38-30.5L474.38-30.5Q471.53-30.5 471.53-27.05L471.53-27.05 471.53-7.95Q471.53-4.5 474.38-4.5L474.38-4.5ZM486.43 0L486.43-35 493.33-35 498.68-14.05 498.78-14.05 498.78-35 503.68-35 503.68 0 498.03 0 491.43-25.55 491.33-25.55 491.33 0 486.43 0Z" opacity="1" transform="matrix(1,0,0,1,0,0)" fill="black" class="slogan-text-1" id="SvgjsPath1001"></path></svg></g></svg></g></svg></g></svg></g><g><svg viewBox="0 0 160.07152010659706 207.8014307312602" height="207.8014307312602" width="160.07152010659706"><g><svg xmlns="http://www.w3.org/2000/svg" xmlns:xlink="http://www.w3.org/1999/xlink" version="1.1" x="0" y="0" viewBox="0 0 77.031 100" enable-background="new 0 0 77.031 100" xml:space="preserve" width="160.07152010659706" height="207.8014307312602" class="icon-icon-0" data-fill-palette-color="accent" id="SvgjsSvg1000"><path d="M48.958 0H0v100h77.031V29.141L48.958 0zM50.273 13.047l13.216 13.724H50.273V13.047zM8.105 91.901V8.112h36.087v24.74h24.733v59.05H8.105z" fill="black"></path></svg></g></svg></g></svg></g><defs><mask></mask></defs></svg><rect width="395.52" height="141.54823147522978" fill="black" stroke="none" visibility="hidden"></rect></g></mask><linearGradient x1="0" x2="1" y1="0.5" y2="0.5" id="aaa6a119-aa8e-4b08-87a4-6044955d426a"><stop stop-color="#f00b51" offset="0"></stop><stop stop-color="#730062" offset="1"></stop></linearGradient><rect width="395.52" height="141.54823147522978" fill="url(#aaa6a119-aa8e-4b08-87a4-6044955d426a)" mask="url(#03ccd1f9-dfc8-49bf-9636-963f23ddbfd7)" data-fill-palette-color="primary"></rect><mask id="c822b5e6-3ec2-4ea7-9224-6e37d9038584"><g id="SvgjsG1017"><svg viewBox="0 0 395.52 141.54823147522978" height="141.54823147522978" width="395.52"><g><svg viewBox="0 0 580.6474657170888 207.8014307312602" height="141.54823147522978" width="395.52"><g transform="matrix(1,0,0,1,185.12746571708885,28.71930048456636)"><svg viewBox="0 0 395.52 150.3628297621275" height="150.3628297621275" width="395.52"><g id="SvgjsG1016"><svg viewBox="0 0 395.52 150.3628297621275" height="150.3628297621275" width="395.52" id="SvgjsSvg1015"><g><svg viewBox="0 0 395.52 106.13508196721311" height="106.13508196721311" width="395.52"><g transform="matrix(1,0,0,1,0,0)"><svg width="395.52" viewBox="1.03 -40.6 153.38 41.160000000000004" height="106.13508196721311" data-palette-color="url(#aaa6a119-aa8e-4b08-87a4-6044955d426a)"><g class="wordmark-text-0" data-fill-palette-color="primary" id="SvgjsG1014"></g></svg></g></svg></g><g transform="matrix(1,0,0,1,0,131.19102757770492)"><svg viewBox="0 0 232.209792 19.17180218442256" height="19.17180218442256" width="232.209792"><g transform="matrix(1,0,0,1,0,0)"><svg width="232.209792" viewBox="1.1 -35.5 502.58 41.5" height="19.17180218442256" data-palette-color="url(#443f57ad-e9c7-4e0f-b08a-7cf2d822c682)"><path d="M9.2 0.5Q5.2 0.5 3.15-1.78 1.1-4.05 1.1-8.3L1.1-8.3 1.1-10.3 6.3-10.3 6.3-7.9Q6.3-4.5 9.15-4.5L9.15-4.5Q10.55-4.5 11.28-5.33 12-6.15 12-8L12-8Q12-10.2 11-11.88 10-13.55 7.3-15.9L7.3-15.9Q3.9-18.9 2.55-21.33 1.2-23.75 1.2-26.8L1.2-26.8Q1.2-30.95 3.3-33.23 5.4-35.5 9.4-35.5L9.4-35.5Q13.35-35.5 15.38-33.23 17.4-30.95 17.4-26.7L17.4-26.7 17.4-25.25 12.2-25.25 12.2-27.05Q12.2-28.85 11.5-29.68 10.8-30.5 9.45-30.5L9.45-30.5Q6.7-30.5 6.7-27.15L6.7-27.15Q6.7-25.25 7.73-23.6 8.75-21.95 11.45-19.6L11.45-19.6Q14.9-16.6 16.2-14.15 17.5-11.7 17.5-8.4L17.5-8.4Q17.5-4.1 15.38-1.8 13.25 0.5 9.2 0.5L9.2 0.5ZM28.6 0.5Q24.55 0.5 22.4-1.8 20.25-4.1 20.25-8.3L20.25-8.3 20.25-26.7Q20.25-30.9 22.4-33.2 24.55-35.5 28.6-35.5L28.6-35.5Q32.65-35.5 34.8-33.2 36.95-30.9 36.95-26.7L36.95-26.7 36.95-8.3Q36.95-4.1 34.8-1.8 32.65 0.5 28.6 0.5L28.6 0.5ZM28.6-4.5Q31.45-4.5 31.45-7.95L31.45-7.95 31.45-27.05Q31.45-30.5 28.6-30.5L28.6-30.5Q25.75-30.5 25.75-27.05L25.75-27.05 25.75-7.95Q25.75-4.5 28.6-4.5L28.6-4.5ZM40.64 0L40.64-35 55.2-35 55.2-30 46.14-30 46.14-20.25 53.24-20.25 53.24-15.25 46.14-15.25 46.14 0 40.64 0ZM62.64 0L62.64-30 56.89-30 56.89-35 73.89-35 73.89-30 68.14-30 68.14 0 62.64 0ZM78.99 0L75.44-35 80.74-35 83.19-8.1 83.29-8.1 85.89-35 91.89-35 94.49-8.1 94.59-8.1 97.04-35 101.79-35 98.24 0 91.39 0 88.89-23.6 88.79-23.6 86.29 0 78.99 0ZM102.44 0L108.14-35 115.59-35 121.29 0 115.79 0 114.79-6.95 114.79-6.85 108.54-6.85 107.54 0 102.44 0ZM109.19-11.6L114.14-11.6 111.69-28.9 111.59-28.9 109.19-11.6ZM123.94 0L123.94-35 132.09-35Q136.34-35 138.29-33.02 140.24-31.05 140.24-26.95L140.24-26.95 140.24-24.8Q140.24-19.35 136.64-17.9L136.64-17.9 136.64-17.8Q138.64-17.2 139.46-15.35 140.29-13.5 140.29-10.4L140.29-10.4 140.29-4.25Q140.29-2.75 140.39-1.83 140.49-0.9 140.89 0L140.89 0 135.29 0Q134.99-0.85 134.89-1.6 134.79-2.35 134.79-4.3L134.79-4.3 134.79-10.7Q134.79-13.1 134.01-14.05 133.24-15 131.34-15L131.34-15 129.44-15 129.44 0 123.94 0ZM129.44-20L131.44-20Q133.09-20 133.91-20.85 134.74-21.7 134.74-23.7L134.74-23.7 134.74-26.4Q134.74-28.3 134.06-29.15 133.39-30 131.94-30L131.94-30 129.44-30 129.44-20ZM144.08 0L144.08-35 159.08-35 159.08-30 149.58-30 149.58-20.75 157.13-20.75 157.13-15.75 149.58-15.75 149.58-5 159.08-5 159.08 0 144.08 0ZM162.48 6L164.28 0 162.48 0 162.48-5.3 167.78-5.3 167.78-0.55 165.03 6 162.48 6ZM179.88 0L179.88-35 194.43-35 194.43-30 185.38-30 185.38-20.25 192.48-20.25 192.48-15.25 185.38-15.25 185.38 0 179.88 0ZM197.07 0L197.07-35 202.57-35 202.57 0 197.07 0ZM206.67 0L206.67-35 213.57-35 218.92-14.05 219.02-14.05 219.02-35 223.92-35 223.92 0 218.27 0 211.67-25.55 211.57-25.55 211.57 0 206.67 0ZM226.57 0L232.27-35 239.72-35 245.42 0 239.92 0 238.92-6.95 238.92-6.85 232.67-6.85 231.67 0 226.57 0ZM233.32-11.6L238.27-11.6 235.82-28.9 235.72-28.9 233.32-11.6ZM248.07 0L248.07-35 254.97-35 260.32-14.05 260.42-14.05 260.42-35 265.32-35 265.32 0 259.67 0 253.07-25.55 252.97-25.55 252.97 0 248.07 0ZM277.16 0.5Q273.21 0.5 271.14-1.75 269.06-4 269.06-8.1L269.06-8.1 269.06-26.9Q269.06-31 271.14-33.25 273.21-35.5 277.16-35.5L277.16-35.5Q281.11-35.5 283.19-33.25 285.26-31 285.26-26.9L285.26-26.9 285.26-23.2 280.06-23.2 280.06-27.25Q280.06-30.5 277.31-30.5L277.31-30.5Q274.56-30.5 274.56-27.25L274.56-27.25 274.56-7.7Q274.56-4.5 277.31-4.5L277.31-4.5Q280.06-4.5 280.06-7.7L280.06-7.7 280.06-13.05 285.26-13.05 285.26-8.1Q285.26-4 283.19-1.75 281.11 0.5 277.16 0.5L277.16 0.5ZM288.56 0L288.56-35 303.56-35 303.56-30 294.06-30 294.06-20.75 301.61-20.75 301.61-15.75 294.06-15.75 294.06-5 303.56-5 303.56 0 288.56 0ZM306.96 6L308.76 0 306.96 0 306.96-5.3 312.26-5.3 312.26-0.55 309.51 6 306.96 6ZM324.35 0L324.35-35 332.5-35Q336.75-35 338.7-33.02 340.65-31.05 340.65-26.95L340.65-26.95 340.65-24.8Q340.65-19.35 337.05-17.9L337.05-17.9 337.05-17.8Q339.05-17.2 339.88-15.35 340.7-13.5 340.7-10.4L340.7-10.4 340.7-4.25Q340.7-2.75 340.8-1.83 340.9-0.9 341.3 0L341.3 0 335.7 0Q335.4-0.85 335.3-1.6 335.2-2.35 335.2-4.3L335.2-4.3 335.2-10.7Q335.2-13.1 334.43-14.05 333.65-15 331.75-15L331.75-15 329.85-15 329.85 0 324.35 0ZM329.85-20L331.85-20Q333.5-20 334.33-20.85 335.15-21.7 335.15-23.7L335.15-23.7 335.15-26.4Q335.15-28.3 334.48-29.15 333.8-30 332.35-30L332.35-30 329.85-30 329.85-20ZM344.5 0L344.5-35 359.5-35 359.5-30 350-30 350-20.75 357.55-20.75 357.55-15.75 350-15.75 350-5 359.5-5 359.5 0 344.5 0ZM369.9 0.5Q365.9 0.5 363.85-1.78 361.8-4.05 361.8-8.3L361.8-8.3 361.8-10.3 367-10.3 367-7.9Q367-4.5 369.85-4.5L369.85-4.5Q371.25-4.5 371.97-5.33 372.7-6.15 372.7-8L372.7-8Q372.7-10.2 371.7-11.88 370.7-13.55 368-15.9L368-15.9Q364.6-18.9 363.25-21.33 361.9-23.75 361.9-26.8L361.9-26.8Q361.9-30.95 364-33.23 366.1-35.5 370.1-35.5L370.1-35.5Q374.05-35.5 376.07-33.23 378.1-30.95 378.1-26.7L378.1-26.7 378.1-25.25 372.9-25.25 372.9-27.05Q372.9-28.85 372.2-29.68 371.5-30.5 370.15-30.5L370.15-30.5Q367.4-30.5 367.4-27.15L367.4-27.15Q367.4-25.25 368.42-23.6 369.45-21.95 372.15-19.6L372.15-19.6Q375.6-16.6 376.9-14.15 378.2-11.7 378.2-8.4L378.2-8.4Q378.2-4.1 376.07-1.8 373.95 0.5 369.9 0.5L369.9 0.5ZM389.3 0.5Q385.25 0.5 383.1-1.8 380.94-4.1 380.94-8.3L380.94-8.3 380.94-26.7Q380.94-30.9 383.1-33.2 385.25-35.5 389.3-35.5L389.3-35.5Q393.35-35.5 395.5-33.2 397.65-30.9 397.65-26.7L397.65-26.7 397.65-8.3Q397.65-4.1 395.5-1.8 393.35 0.5 389.3 0.5L389.3 0.5ZM389.3-4.5Q392.15-4.5 392.15-7.95L392.15-7.95 392.15-27.05Q392.15-30.5 389.3-30.5L389.3-30.5Q386.44-30.5 386.44-27.05L386.44-27.05 386.44-7.95Q386.44-4.5 389.3-4.5L389.3-4.5ZM401.34 0L401.34-35 406.84-35 406.84-5 415.89-5 415.89 0 401.34 0ZM426.54 0.5Q422.54 0.5 420.44-1.78 418.34-4.05 418.34-8.3L418.34-8.3 418.34-35 423.84-35 423.84-7.9Q423.84-6.1 424.56-5.3 425.29-4.5 426.64-4.5L426.64-4.5Q427.99-4.5 428.72-5.3 429.44-6.1 429.44-7.9L429.44-7.9 429.44-35 434.74-35 434.74-8.3Q434.74-4.05 432.64-1.78 430.54 0.5 426.54 0.5L426.54 0.5ZM442.94 0L442.94-30 437.19-30 437.19-35 454.19-35 454.19-30 448.44-30 448.44 0 442.94 0ZM456.84 0L456.84-35 462.34-35 462.34 0 456.84 0ZM474.38 0.5Q470.33 0.5 468.18-1.8 466.03-4.1 466.03-8.3L466.03-8.3 466.03-26.7Q466.03-30.9 468.18-33.2 470.33-35.5 474.38-35.5L474.38-35.5Q478.43-35.5 480.58-33.2 482.73-30.9 482.73-26.7L482.73-26.7 482.73-8.3Q482.73-4.1 480.58-1.8 478.43 0.5 474.38 0.5L474.38 0.5ZM474.38-4.5Q477.23-4.5 477.23-7.95L477.23-7.95 477.23-27.05Q477.23-30.5 474.38-30.5L474.38-30.5Q471.53-30.5 471.53-27.05L471.53-27.05 471.53-7.95Q471.53-4.5 474.38-4.5L474.38-4.5ZM486.43 0L486.43-35 493.33-35 498.68-14.05 498.78-14.05 498.78-35 503.68-35 503.68 0 498.03 0 491.43-25.55 491.33-25.55 491.33 0 486.43 0Z" opacity="1" transform="matrix(1,0,0,1,0,0)" fill="white" class="slogan-text-1" id="SvgjsPath1013"></path></svg></g></svg></g></svg></g></svg></g><g><svg viewBox="0 0 160.07152010659706 207.8014307312602" height="207.8014307312602" width="160.07152010659706"><g><svg xmlns="http://www.w3.org/2000/svg" xmlns:xlink="http://www.w3.org/1999/xlink" version="1.1" x="0" y="0" viewBox="0 0 77.031 100" enable-background="new 0 0 77.031 100" xml:space="preserve" width="160.07152010659706" height="207.8014307312602" class="icon-icon-0" data-fill-palette-color="accent" id="SvgjsSvg1012"><path d="M48.958 0H0v100h77.031V29.141L48.958 0zM50.273 13.047l13.216 13.724H50.273V13.047zM8.105 91.901V8.112h36.087v24.74h24.733v59.05H8.105z" fill="black"></path></svg></g></svg></g></svg></g><defs><mask></mask></defs><mask><g id="SvgjsG1011"><svg viewBox="0 0 395.52 141.54823147522978" height="141.54823147522978" width="395.52"><g><svg viewBox="0 0 580.6474657170888 207.8014307312602" height="141.54823147522978" width="395.52"><g transform="matrix(1,0,0,1,185.12746571708885,28.71930048456636)"><svg viewBox="0 0 395.52 150.3628297621275" height="150.3628297621275" width="395.52"><g id="SvgjsG1010"><svg viewBox="0 0 395.52 150.3628297621275" height="150.3628297621275" width="395.52" id="SvgjsSvg1009"><g><svg viewBox="0 0 395.52 106.13508196721311" height="106.13508196721311" width="395.52"><g transform="matrix(1,0,0,1,0,0)"><svg width="395.52" viewBox="1.03 -40.6 153.38 41.160000000000004" height="106.13508196721311" data-palette-color="url(#aaa6a119-aa8e-4b08-87a4-6044955d426a)"><g class="wordmark-text-0" data-fill-palette-color="primary" id="SvgjsG1008"><path d="M4.15-2.59L4.15-20.36 1.03-20.92 1.03-22.95 8.11-24.73 8.11-18.51Q13.72-24.73 16.55-24.73L16.55-24.73Q18.87-24.73 20.83-22.88L20.83-22.88 19.56-18.92 18.41-18.92Q18.41-20.12 16.58-20.7L16.58-20.7Q16.06-20.85 15.55-20.85L15.55-20.85Q12.96-20.85 8.11-15.65L8.11-15.65 8.11-2.59 12.94-2.03 12.94 0 1.03 0 1.03-2.03 4.15-2.59ZM42.36-5.59L42.36-5.59 43.75-4Q39.87-0.51 36.23 0.37L36.23 0.37Q35.42 0.56 34.64 0.56L34.64 0.56Q29.27 0.56 25.9-2.83L25.9-2.83Q22.56-6.15 22.56-11.5L22.56-11.5Q22.56-16.82 25.71-20.61L25.71-20.61Q29.17-24.73 34.71-24.73L34.71-24.73Q38.55-24.73 41.18-21.97L41.18-21.97Q43.99-19.09 43.99-14.48L43.99-14.48 42.84-13.45 26.93-12.3Q26.98-7.86 29.81-5.2L29.81-5.2Q32.35-2.86 35.72-2.86 39.08-2.86 42.36-5.59ZM27.1-14.6L27.1-14.6 39.65-15.75Q39.48-19.8 36.52-21.31L36.52-21.31Q35.47-21.85 33.84-21.85 32.2-21.85 30.92-21.04 29.64-20.24 28.81-19.09L28.81-19.09Q27.22-16.92 27.1-14.6ZM67.62-5.59L67.62-5.59 69.01-4Q65.13-0.51 61.49 0.37L61.49 0.37Q60.69 0.56 59.91 0.56L59.91 0.56Q54.56 0.56 51.26-2.83L51.26-2.83Q48.07-6.13 48.07-11.5L48.07-11.5Q48.07-16.87 51.26-20.61L51.26-20.61Q54.83-24.73 60.83-24.73L60.83-24.73Q64.84-24.73 67.91-23.41L67.91-23.41 67.33-18.51 65.79-18.51Q65.79-20.97 62.84-21.63L62.84-21.63Q61.91-21.85 60.25-21.85 58.59-21.85 56.99-21.08 55.39-20.31 54.37-19.04L54.37-19.04Q52.34-16.53 52.34-12.89L52.34-12.89Q52.34-8.42 54.54-5.74L54.54-5.74Q56.9-2.86 60.63-2.86 64.35-2.86 67.62-5.59ZM85.44-24.73L85.44-24.73Q88.49-24.73 91.52-23.54L91.52-23.54 91.52-36.06 87.79-36.82 87.79-38.79 95.48-40.6 95.48-3.91Q95.48-2.81 96.71-2.81 97.94-2.81 99.8-3.56L99.8-3.56 100.31-1.27Q96.82 0.56 95.09 0.56L95.09 0.56Q92.57 0.56 91.79-1.07L91.79-1.07Q91.52-1.66 91.52-2.47L91.52-2.47Q89.69-0.85 87.61-0.15 85.54 0.56 83.31 0.56 81.07 0.56 79-0.29 76.92-1.15 75.53-2.73L75.53-2.73Q72.82-5.83 72.82-11.5L72.82-11.5Q72.82-16.92 76.02-20.61L76.02-20.61Q79.56-24.73 85.44-24.73ZM85.44-2.86L85.44-2.86Q87.91-2.86 91.52-5.18L91.52-5.18 91.52-19.04Q89.42-21.85 84.83-21.85L84.83-21.85Q81.29-21.85 79.09-18.99L79.09-18.99Q77.04-16.28 77.04-12.01L77.04-12.01Q77.04-8.13 79-5.64L79-5.64Q81.14-2.86 85.44-2.86ZM102.46-11.87L102.46-11.87Q102.46-14.67 103.42-17.09 104.38-19.51 106.04-21.19L106.04-21.19Q109.46-24.73 114.47-24.73L114.47-24.73Q120.28-24.73 123.55-21.29L123.55-21.29Q126.65-17.99 126.65-12.67L126.65-12.67Q126.65-6.74 123.13-3.03L123.13-3.03Q119.72 0.56 114.69 0.56L114.69 0.56Q108.95 0.56 105.61-2.98L105.61-2.98Q102.46-6.3 102.46-11.87ZM108.71-19.15Q107.73-17.9 107.23-16.21 106.73-14.53 106.73-12.56 106.73-10.6 107.18-8.73 107.63-6.86 108.58-5.42L108.58-5.42Q110.68-2.29 114.64-2.29L114.64-2.29Q118.35-2.29 120.4-4.74L120.4-4.74Q122.43-7.13 122.43-11.21L122.43-11.21Q122.43-18.43 118.3-20.92L118.3-20.92Q116.76-21.85 114.66-21.85 112.56-21.85 111.12-21.13 109.68-20.41 108.71-19.15ZM152.21-21.56L143.15 0 139.76 0 130.6-21.56 128.41-22.12 128.41-24.15 137.9-24.15 137.9-22.12 135.09-21.56 142.37-3.96 149.23-21.68 146.47-22.12 146.47-24.15 154.41-24.15 154.41-22.12 152.21-21.56Z" fill="black"></path></g></svg></g></svg></g><g transform="matrix(1,0,0,1,0,131.19102757770492)"><svg viewBox="0 0 232.209792 19.17180218442256" height="19.17180218442256" width="232.209792"><g transform="matrix(1,0,0,1,0,0)"><svg width="232.209792" viewBox="1.1 -35.5 502.58 41.5" height="19.17180218442256" data-palette-color="url(#443f57ad-e9c7-4e0f-b08a-7cf2d822c682)"><path d="M9.2 0.5Q5.2 0.5 3.15-1.78 1.1-4.05 1.1-8.3L1.1-8.3 1.1-10.3 6.3-10.3 6.3-7.9Q6.3-4.5 9.15-4.5L9.15-4.5Q10.55-4.5 11.28-5.33 12-6.15 12-8L12-8Q12-10.2 11-11.88 10-13.55 7.3-15.9L7.3-15.9Q3.9-18.9 2.55-21.33 1.2-23.75 1.2-26.8L1.2-26.8Q1.2-30.95 3.3-33.23 5.4-35.5 9.4-35.5L9.4-35.5Q13.35-35.5 15.38-33.23 17.4-30.95 17.4-26.7L17.4-26.7 17.4-25.25 12.2-25.25 12.2-27.05Q12.2-28.85 11.5-29.68 10.8-30.5 9.45-30.5L9.45-30.5Q6.7-30.5 6.7-27.15L6.7-27.15Q6.7-25.25 7.73-23.6 8.75-21.95 11.45-19.6L11.45-19.6Q14.9-16.6 16.2-14.15 17.5-11.7 17.5-8.4L17.5-8.4Q17.5-4.1 15.38-1.8 13.25 0.5 9.2 0.5L9.2 0.5ZM28.6 0.5Q24.55 0.5 22.4-1.8 20.25-4.1 20.25-8.3L20.25-8.3 20.25-26.7Q20.25-30.9 22.4-33.2 24.55-35.5 28.6-35.5L28.6-35.5Q32.65-35.5 34.8-33.2 36.95-30.9 36.95-26.7L36.95-26.7 36.95-8.3Q36.95-4.1 34.8-1.8 32.65 0.5 28.6 0.5L28.6 0.5ZM28.6-4.5Q31.45-4.5 31.45-7.95L31.45-7.95 31.45-27.05Q31.45-30.5 28.6-30.5L28.6-30.5Q25.75-30.5 25.75-27.05L25.75-27.05 25.75-7.95Q25.75-4.5 28.6-4.5L28.6-4.5ZM40.64 0L40.64-35 55.2-35 55.2-30 46.14-30 46.14-20.25 53.24-20.25 53.24-15.25 46.14-15.25 46.14 0 40.64 0ZM62.64 0L62.64-30 56.89-30 56.89-35 73.89-35 73.89-30 68.14-30 68.14 0 62.64 0ZM78.99 0L75.44-35 80.74-35 83.19-8.1 83.29-8.1 85.89-35 91.89-35 94.49-8.1 94.59-8.1 97.04-35 101.79-35 98.24 0 91.39 0 88.89-23.6 88.79-23.6 86.29 0 78.99 0ZM102.44 0L108.14-35 115.59-35 121.29 0 115.79 0 114.79-6.95 114.79-6.85 108.54-6.85 107.54 0 102.44 0ZM109.19-11.6L114.14-11.6 111.69-28.9 111.59-28.9 109.19-11.6ZM123.94 0L123.94-35 132.09-35Q136.34-35 138.29-33.02 140.24-31.05 140.24-26.95L140.24-26.95 140.24-24.8Q140.24-19.35 136.64-17.9L136.64-17.9 136.64-17.8Q138.64-17.2 139.46-15.35 140.29-13.5 140.29-10.4L140.29-10.4 140.29-4.25Q140.29-2.75 140.39-1.83 140.49-0.9 140.89 0L140.89 0 135.29 0Q134.99-0.85 134.89-1.6 134.79-2.35 134.79-4.3L134.79-4.3 134.79-10.7Q134.79-13.1 134.01-14.05 133.24-15 131.34-15L131.34-15 129.44-15 129.44 0 123.94 0ZM129.44-20L131.44-20Q133.09-20 133.91-20.85 134.74-21.7 134.74-23.7L134.74-23.7 134.74-26.4Q134.74-28.3 134.06-29.15 133.39-30 131.94-30L131.94-30 129.44-30 129.44-20ZM144.08 0L144.08-35 159.08-35 159.08-30 149.58-30 149.58-20.75 157.13-20.75 157.13-15.75 149.58-15.75 149.58-5 159.08-5 159.08 0 144.08 0ZM162.48 6L164.28 0 162.48 0 162.48-5.3 167.78-5.3 167.78-0.55 165.03 6 162.48 6ZM179.88 0L179.88-35 194.43-35 194.43-30 185.38-30 185.38-20.25 192.48-20.25 192.48-15.25 185.38-15.25 185.38 0 179.88 0ZM197.07 0L197.07-35 202.57-35 202.57 0 197.07 0ZM206.67 0L206.67-35 213.57-35 218.92-14.05 219.02-14.05 219.02-35 223.92-35 223.92 0 218.27 0 211.67-25.55 211.57-25.55 211.57 0 206.67 0ZM226.57 0L232.27-35 239.72-35 245.42 0 239.92 0 238.92-6.95 238.92-6.85 232.67-6.85 231.67 0 226.57 0ZM233.32-11.6L238.27-11.6 235.82-28.9 235.72-28.9 233.32-11.6ZM248.07 0L248.07-35 254.97-35 260.32-14.05 260.42-14.05 260.42-35 265.32-35 265.32 0 259.67 0 253.07-25.55 252.97-25.55 252.97 0 248.07 0ZM277.16 0.5Q273.21 0.5 271.14-1.75 269.06-4 269.06-8.1L269.06-8.1 269.06-26.9Q269.06-31 271.14-33.25 273.21-35.5 277.16-35.5L277.16-35.5Q281.11-35.5 283.19-33.25 285.26-31 285.26-26.9L285.26-26.9 285.26-23.2 280.06-23.2 280.06-27.25Q280.06-30.5 277.31-30.5L277.31-30.5Q274.56-30.5 274.56-27.25L274.56-27.25 274.56-7.7Q274.56-4.5 277.31-4.5L277.31-4.5Q280.06-4.5 280.06-7.7L280.06-7.7 280.06-13.05 285.26-13.05 285.26-8.1Q285.26-4 283.19-1.75 281.11 0.5 277.16 0.5L277.16 0.5ZM288.56 0L288.56-35 303.56-35 303.56-30 294.06-30 294.06-20.75 301.61-20.75 301.61-15.75 294.06-15.75 294.06-5 303.56-5 303.56 0 288.56 0ZM306.96 6L308.76 0 306.96 0 306.96-5.3 312.26-5.3 312.26-0.55 309.51 6 306.96 6ZM324.35 0L324.35-35 332.5-35Q336.75-35 338.7-33.02 340.65-31.05 340.65-26.95L340.65-26.95 340.65-24.8Q340.65-19.35 337.05-17.9L337.05-17.9 337.05-17.8Q339.05-17.2 339.88-15.35 340.7-13.5 340.7-10.4L340.7-10.4 340.7-4.25Q340.7-2.75 340.8-1.83 340.9-0.9 341.3 0L341.3 0 335.7 0Q335.4-0.85 335.3-1.6 335.2-2.35 335.2-4.3L335.2-4.3 335.2-10.7Q335.2-13.1 334.43-14.05 333.65-15 331.75-15L331.75-15 329.85-15 329.85 0 324.35 0ZM329.85-20L331.85-20Q333.5-20 334.33-20.85 335.15-21.7 335.15-23.7L335.15-23.7 335.15-26.4Q335.15-28.3 334.48-29.15 333.8-30 332.35-30L332.35-30 329.85-30 329.85-20ZM344.5 0L344.5-35 359.5-35 359.5-30 350-30 350-20.75 357.55-20.75 357.55-15.75 350-15.75 350-5 359.5-5 359.5 0 344.5 0ZM369.9 0.5Q365.9 0.5 363.85-1.78 361.8-4.05 361.8-8.3L361.8-8.3 361.8-10.3 367-10.3 367-7.9Q367-4.5 369.85-4.5L369.85-4.5Q371.25-4.5 371.97-5.33 372.7-6.15 372.7-8L372.7-8Q372.7-10.2 371.7-11.88 370.7-13.55 368-15.9L368-15.9Q364.6-18.9 363.25-21.33 361.9-23.75 361.9-26.8L361.9-26.8Q361.9-30.95 364-33.23 366.1-35.5 370.1-35.5L370.1-35.5Q374.05-35.5 376.07-33.23 378.1-30.95 378.1-26.7L378.1-26.7 378.1-25.25 372.9-25.25 372.9-27.05Q372.9-28.85 372.2-29.68 371.5-30.5 370.15-30.5L370.15-30.5Q367.4-30.5 367.4-27.15L367.4-27.15Q367.4-25.25 368.42-23.6 369.45-21.95 372.15-19.6L372.15-19.6Q375.6-16.6 376.9-14.15 378.2-11.7 378.2-8.4L378.2-8.4Q378.2-4.1 376.07-1.8 373.95 0.5 369.9 0.5L369.9 0.5ZM389.3 0.5Q385.25 0.5 383.1-1.8 380.94-4.1 380.94-8.3L380.94-8.3 380.94-26.7Q380.94-30.9 383.1-33.2 385.25-35.5 389.3-35.5L389.3-35.5Q393.35-35.5 395.5-33.2 397.65-30.9 397.65-26.7L397.65-26.7 397.65-8.3Q397.65-4.1 395.5-1.8 393.35 0.5 389.3 0.5L389.3 0.5ZM389.3-4.5Q392.15-4.5 392.15-7.95L392.15-7.95 392.15-27.05Q392.15-30.5 389.3-30.5L389.3-30.5Q386.44-30.5 386.44-27.05L386.44-27.05 386.44-7.95Q386.44-4.5 389.3-4.5L389.3-4.5ZM401.34 0L401.34-35 406.84-35 406.84-5 415.89-5 415.89 0 401.34 0ZM426.54 0.5Q422.54 0.5 420.44-1.78 418.34-4.05 418.34-8.3L418.34-8.3 418.34-35 423.84-35 423.84-7.9Q423.84-6.1 424.56-5.3 425.29-4.5 426.64-4.5L426.64-4.5Q427.99-4.5 428.72-5.3 429.44-6.1 429.44-7.9L429.44-7.9 429.44-35 434.74-35 434.74-8.3Q434.74-4.05 432.64-1.78 430.54 0.5 426.54 0.5L426.54 0.5ZM442.94 0L442.94-30 437.19-30 437.19-35 454.19-35 454.19-30 448.44-30 448.44 0 442.94 0ZM456.84 0L456.84-35 462.34-35 462.34 0 456.84 0ZM474.38 0.5Q470.33 0.5 468.18-1.8 466.03-4.1 466.03-8.3L466.03-8.3 466.03-26.7Q466.03-30.9 468.18-33.2 470.33-35.5 474.38-35.5L474.38-35.5Q478.43-35.5 480.58-33.2 482.73-30.9 482.73-26.7L482.73-26.7 482.73-8.3Q482.73-4.1 480.58-1.8 478.43 0.5 474.38 0.5L474.38 0.5ZM474.38-4.5Q477.23-4.5 477.23-7.95L477.23-7.95 477.23-27.05Q477.23-30.5 474.38-30.5L474.38-30.5Q471.53-30.5 471.53-27.05L471.53-27.05 471.53-7.95Q471.53-4.5 474.38-4.5L474.38-4.5ZM486.43 0L486.43-35 493.33-35 498.68-14.05 498.78-14.05 498.78-35 503.68-35 503.68 0 498.03 0 491.43-25.55 491.33-25.55 491.33 0 486.43 0Z" opacity="1" transform="matrix(1,0,0,1,0,0)" fill="black" class="slogan-text-1" id="SvgjsPath1007"></path></svg></g></svg></g></svg></g></svg></g><g><svg viewBox="0 0 160.07152010659706 207.8014307312602" height="207.8014307312602" width="160.07152010659706"><g><svg xmlns="http://www.w3.org/2000/svg" xmlns:xlink="http://www.w3.org/1999/xlink" version="1.1" x="0" y="0" viewBox="0 0 77.031 100" enable-background="new 0 0 77.031 100" xml:space="preserve" width="160.07152010659706" height="207.8014307312602" class="icon-icon-0" data-fill-palette-color="accent" id="SvgjsSvg1006"><path d="M48.958 0H0v100h77.031V29.141L48.958 0zM50.273 13.047l13.216 13.724H50.273V13.047zM8.105 91.901V8.112h36.087v24.74h24.733v59.05H8.105z" fill="black"></path></svg></g></svg></g></svg></g><defs><mask></mask></defs></svg><rect width="395.52" height="141.54823147522978" fill="black" stroke="none" visibility="hidden"></rect></g></mask></svg><rect width="395.52" height="141.54823147522978" fill="black" stroke="none" visibility="hidden"></rect></g></mask><linearGradient x1="0" x2="1" y1="0.5" y2="0.5" id="443f57ad-e9c7-4e0f-b08a-7cf2d822c682"><stop stop-color="#f00b51" offset="0"></stop><stop stop-color="#730062" offset="1"></stop></linearGradient><rect width="395.52" height="141.54823147522978" fill="url(#443f57ad-e9c7-4e0f-b08a-7cf2d822c682)" mask="url(#c822b5e6-3ec2-4ea7-9224-6e37d9038584)" data-fill-palette-color="secondary"></rect><mask id="65243a78-a244-4774-a4e5-e2ae40934efb"><g id="SvgjsG1040"><svg viewBox="0 0 395.52 141.54823147522978" height="141.54823147522978" width="395.52"><g><svg viewBox="0 0 580.6474657170888 207.8014307312602" height="141.54823147522978" width="395.52"><g transform="matrix(1,0,0,1,185.12746571708885,28.71930048456636)"><svg viewBox="0 0 395.52 150.3628297621275" height="150.3628297621275" width="395.52"><g id="SvgjsG1039"><svg viewBox="0 0 395.52 150.3628297621275" height="150.3628297621275" width="395.52" id="SvgjsSvg1038"><g><svg viewBox="0 0 395.52 106.13508196721311" height="106.13508196721311" width="395.52"><g transform="matrix(1,0,0,1,0,0)"><svg width="395.52" viewBox="1.03 -40.6 153.38 41.160000000000004" height="106.13508196721311" data-palette-color="url(#aaa6a119-aa8e-4b08-87a4-6044955d426a)"><g class="wordmark-text-0" data-fill-palette-color="primary" id="SvgjsG1037"></g></svg></g></svg></g><g transform="matrix(1,0,0,1,0,131.19102757770492)"><svg viewBox="0 0 232.209792 19.17180218442256" height="19.17180218442256" width="232.209792"><g transform="matrix(1,0,0,1,0,0)"><svg width="232.209792" viewBox="1.1 -35.5 502.58 41.5" height="19.17180218442256" data-palette-color="url(#443f57ad-e9c7-4e0f-b08a-7cf2d822c682)"></svg></g></svg></g></svg></g></svg></g><g><svg viewBox="0 0 160.07152010659706 207.8014307312602" height="207.8014307312602" width="160.07152010659706"><g><svg xmlns="http://www.w3.org/2000/svg" xmlns:xlink="http://www.w3.org/1999/xlink" version="1.1" x="0" y="0" viewBox="0 0 77.031 100" enable-background="new 0 0 77.031 100" xml:space="preserve" width="160.07152010659706" height="207.8014307312602" class="icon-icon-0" data-fill-palette-color="accent" id="SvgjsSvg1036"><path d="M48.958 0H0v100h77.031V29.141L48.958 0zM50.273 13.047l13.216 13.724H50.273V13.047zM8.105 91.901V8.112h36.087v24.74h24.733v59.05H8.105z" fill="white"></path></svg></g></svg></g></svg></g><defs><mask></mask></defs><mask><g id="SvgjsG1035"><svg viewBox="0 0 395.52 141.54823147522978" height="141.54823147522978" width="395.52"><g><svg viewBox="0 0 580.6474657170888 207.8014307312602" height="141.54823147522978" width="395.52"><g transform="matrix(1,0,0,1,185.12746571708885,28.71930048456636)"><svg viewBox="0 0 395.52 150.3628297621275" height="150.3628297621275" width="395.52"><g id="SvgjsG1034"><svg viewBox="0 0 395.52 150.3628297621275" height="150.3628297621275" width="395.52" id="SvgjsSvg1033"><g><svg viewBox="0 0 395.52 106.13508196721311" height="106.13508196721311" width="395.52"><g transform="matrix(1,0,0,1,0,0)"><svg width="395.52" viewBox="1.03 -40.6 153.38 41.160000000000004" height="106.13508196721311" data-palette-color="url(#aaa6a119-aa8e-4b08-87a4-6044955d426a)"><g class="wordmark-text-0" data-fill-palette-color="primary" id="SvgjsG1032"><path d="M4.15-2.59L4.15-20.36 1.03-20.92 1.03-22.95 8.11-24.73 8.11-18.51Q13.72-24.73 16.55-24.73L16.55-24.73Q18.87-24.73 20.83-22.88L20.83-22.88 19.56-18.92 18.41-18.92Q18.41-20.12 16.58-20.7L16.58-20.7Q16.06-20.85 15.55-20.85L15.55-20.85Q12.96-20.85 8.11-15.65L8.11-15.65 8.11-2.59 12.94-2.03 12.94 0 1.03 0 1.03-2.03 4.15-2.59ZM42.36-5.59L42.36-5.59 43.75-4Q39.87-0.51 36.23 0.37L36.23 0.37Q35.42 0.56 34.64 0.56L34.64 0.56Q29.27 0.56 25.9-2.83L25.9-2.83Q22.56-6.15 22.56-11.5L22.56-11.5Q22.56-16.82 25.71-20.61L25.71-20.61Q29.17-24.73 34.71-24.73L34.71-24.73Q38.55-24.73 41.18-21.97L41.18-21.97Q43.99-19.09 43.99-14.48L43.99-14.48 42.84-13.45 26.93-12.3Q26.98-7.86 29.81-5.2L29.81-5.2Q32.35-2.86 35.72-2.86 39.08-2.86 42.36-5.59ZM27.1-14.6L27.1-14.6 39.65-15.75Q39.48-19.8 36.52-21.31L36.52-21.31Q35.47-21.85 33.84-21.85 32.2-21.85 30.92-21.04 29.64-20.24 28.81-19.09L28.81-19.09Q27.22-16.92 27.1-14.6ZM67.62-5.59L67.62-5.59 69.01-4Q65.13-0.51 61.49 0.37L61.49 0.37Q60.69 0.56 59.91 0.56L59.91 0.56Q54.56 0.56 51.26-2.83L51.26-2.83Q48.07-6.13 48.07-11.5L48.07-11.5Q48.07-16.87 51.26-20.61L51.26-20.61Q54.83-24.73 60.83-24.73L60.83-24.73Q64.84-24.73 67.91-23.41L67.91-23.41 67.33-18.51 65.79-18.51Q65.79-20.97 62.84-21.63L62.84-21.63Q61.91-21.85 60.25-21.85 58.59-21.85 56.99-21.08 55.39-20.31 54.37-19.04L54.37-19.04Q52.34-16.53 52.34-12.89L52.34-12.89Q52.34-8.42 54.54-5.74L54.54-5.74Q56.9-2.86 60.63-2.86 64.35-2.86 67.62-5.59ZM85.44-24.73L85.44-24.73Q88.49-24.73 91.52-23.54L91.52-23.54 91.52-36.06 87.79-36.82 87.79-38.79 95.48-40.6 95.48-3.91Q95.48-2.81 96.71-2.81 97.94-2.81 99.8-3.56L99.8-3.56 100.31-1.27Q96.82 0.56 95.09 0.56L95.09 0.56Q92.57 0.56 91.79-1.07L91.79-1.07Q91.52-1.66 91.52-2.47L91.52-2.47Q89.69-0.85 87.61-0.15 85.54 0.56 83.31 0.56 81.07 0.56 79-0.29 76.92-1.15 75.53-2.73L75.53-2.73Q72.82-5.83 72.82-11.5L72.82-11.5Q72.82-16.92 76.02-20.61L76.02-20.61Q79.56-24.73 85.44-24.73ZM85.44-2.86L85.44-2.86Q87.91-2.86 91.52-5.18L91.52-5.18 91.52-19.04Q89.42-21.85 84.83-21.85L84.83-21.85Q81.29-21.85 79.09-18.99L79.09-18.99Q77.04-16.28 77.04-12.01L77.04-12.01Q77.04-8.13 79-5.64L79-5.64Q81.14-2.86 85.44-2.86ZM102.46-11.87L102.46-11.87Q102.46-14.67 103.42-17.09 104.38-19.51 106.04-21.19L106.04-21.19Q109.46-24.73 114.47-24.73L114.47-24.73Q120.28-24.73 123.55-21.29L123.55-21.29Q126.65-17.99 126.65-12.67L126.65-12.67Q126.65-6.74 123.13-3.03L123.13-3.03Q119.72 0.56 114.69 0.56L114.69 0.56Q108.95 0.56 105.61-2.98L105.61-2.98Q102.46-6.3 102.46-11.87ZM108.71-19.15Q107.73-17.9 107.23-16.21 106.73-14.53 106.73-12.56 106.73-10.6 107.18-8.73 107.63-6.86 108.58-5.42L108.58-5.42Q110.68-2.29 114.64-2.29L114.64-2.29Q118.35-2.29 120.4-4.74L120.4-4.74Q122.43-7.13 122.43-11.21L122.43-11.21Q122.43-18.43 118.3-20.92L118.3-20.92Q116.76-21.85 114.66-21.85 112.56-21.85 111.12-21.13 109.68-20.41 108.71-19.15ZM152.21-21.56L143.15 0 139.76 0 130.6-21.56 128.41-22.12 128.41-24.15 137.9-24.15 137.9-22.12 135.09-21.56 142.37-3.96 149.23-21.68 146.47-22.12 146.47-24.15 154.41-24.15 154.41-22.12 152.21-21.56Z" fill="black"></path></g></svg></g></svg></g><g transform="matrix(1,0,0,1,0,131.19102757770492)"><svg viewBox="0 0 232.209792 19.17180218442256" height="19.17180218442256" width="232.209792"><g transform="matrix(1,0,0,1,0,0)"><svg width="232.209792" viewBox="1.1 -35.5 502.58 41.5" height="19.17180218442256" data-palette-color="url(#443f57ad-e9c7-4e0f-b08a-7cf2d822c682)"><path d="M9.2 0.5Q5.2 0.5 3.15-1.78 1.1-4.05 1.1-8.3L1.1-8.3 1.1-10.3 6.3-10.3 6.3-7.9Q6.3-4.5 9.15-4.5L9.15-4.5Q10.55-4.5 11.28-5.33 12-6.15 12-8L12-8Q12-10.2 11-11.88 10-13.55 7.3-15.9L7.3-15.9Q3.9-18.9 2.55-21.33 1.2-23.75 1.2-26.8L1.2-26.8Q1.2-30.95 3.3-33.23 5.4-35.5 9.4-35.5L9.4-35.5Q13.35-35.5 15.38-33.23 17.4-30.95 17.4-26.7L17.4-26.7 17.4-25.25 12.2-25.25 12.2-27.05Q12.2-28.85 11.5-29.68 10.8-30.5 9.45-30.5L9.45-30.5Q6.7-30.5 6.7-27.15L6.7-27.15Q6.7-25.25 7.73-23.6 8.75-21.95 11.45-19.6L11.45-19.6Q14.9-16.6 16.2-14.15 17.5-11.7 17.5-8.4L17.5-8.4Q17.5-4.1 15.38-1.8 13.25 0.5 9.2 0.5L9.2 0.5ZM28.6 0.5Q24.55 0.5 22.4-1.8 20.25-4.1 20.25-8.3L20.25-8.3 20.25-26.7Q20.25-30.9 22.4-33.2 24.55-35.5 28.6-35.5L28.6-35.5Q32.65-35.5 34.8-33.2 36.95-30.9 36.95-26.7L36.95-26.7 36.95-8.3Q36.95-4.1 34.8-1.8 32.65 0.5 28.6 0.5L28.6 0.5ZM28.6-4.5Q31.45-4.5 31.45-7.95L31.45-7.95 31.45-27.05Q31.45-30.5 28.6-30.5L28.6-30.5Q25.75-30.5 25.75-27.05L25.75-27.05 25.75-7.95Q25.75-4.5 28.6-4.5L28.6-4.5ZM40.64 0L40.64-35 55.2-35 55.2-30 46.14-30 46.14-20.25 53.24-20.25 53.24-15.25 46.14-15.25 46.14 0 40.64 0ZM62.64 0L62.64-30 56.89-30 56.89-35 73.89-35 73.89-30 68.14-30 68.14 0 62.64 0ZM78.99 0L75.44-35 80.74-35 83.19-8.1 83.29-8.1 85.89-35 91.89-35 94.49-8.1 94.59-8.1 97.04-35 101.79-35 98.24 0 91.39 0 88.89-23.6 88.79-23.6 86.29 0 78.99 0ZM102.44 0L108.14-35 115.59-35 121.29 0 115.79 0 114.79-6.95 114.79-6.85 108.54-6.85 107.54 0 102.44 0ZM109.19-11.6L114.14-11.6 111.69-28.9 111.59-28.9 109.19-11.6ZM123.94 0L123.94-35 132.09-35Q136.34-35 138.29-33.02 140.24-31.05 140.24-26.95L140.24-26.95 140.24-24.8Q140.24-19.35 136.64-17.9L136.64-17.9 136.64-17.8Q138.64-17.2 139.46-15.35 140.29-13.5 140.29-10.4L140.29-10.4 140.29-4.25Q140.29-2.75 140.39-1.83 140.49-0.9 140.89 0L140.89 0 135.29 0Q134.99-0.85 134.89-1.6 134.79-2.35 134.79-4.3L134.79-4.3 134.79-10.7Q134.79-13.1 134.01-14.05 133.24-15 131.34-15L131.34-15 129.44-15 129.44 0 123.94 0ZM129.44-20L131.44-20Q133.09-20 133.91-20.85 134.74-21.7 134.74-23.7L134.74-23.7 134.74-26.4Q134.74-28.3 134.06-29.15 133.39-30 131.94-30L131.94-30 129.44-30 129.44-20ZM144.08 0L144.08-35 159.08-35 159.08-30 149.58-30 149.58-20.75 157.13-20.75 157.13-15.75 149.58-15.75 149.58-5 159.08-5 159.08 0 144.08 0ZM162.48 6L164.28 0 162.48 0 162.48-5.3 167.78-5.3 167.78-0.55 165.03 6 162.48 6ZM179.88 0L179.88-35 194.43-35 194.43-30 185.38-30 185.38-20.25 192.48-20.25 192.48-15.25 185.38-15.25 185.38 0 179.88 0ZM197.07 0L197.07-35 202.57-35 202.57 0 197.07 0ZM206.67 0L206.67-35 213.57-35 218.92-14.05 219.02-14.05 219.02-35 223.92-35 223.92 0 218.27 0 211.67-25.55 211.57-25.55 211.57 0 206.67 0ZM226.57 0L232.27-35 239.72-35 245.42 0 239.92 0 238.92-6.95 238.92-6.85 232.67-6.85 231.67 0 226.57 0ZM233.32-11.6L238.27-11.6 235.82-28.9 235.72-28.9 233.32-11.6ZM248.07 0L248.07-35 254.97-35 260.32-14.05 260.42-14.05 260.42-35 265.32-35 265.32 0 259.67 0 253.07-25.55 252.97-25.55 252.97 0 248.07 0ZM277.16 0.5Q273.21 0.5 271.14-1.75 269.06-4 269.06-8.1L269.06-8.1 269.06-26.9Q269.06-31 271.14-33.25 273.21-35.5 277.16-35.5L277.16-35.5Q281.11-35.5 283.19-33.25 285.26-31 285.26-26.9L285.26-26.9 285.26-23.2 280.06-23.2 280.06-27.25Q280.06-30.5 277.31-30.5L277.31-30.5Q274.56-30.5 274.56-27.25L274.56-27.25 274.56-7.7Q274.56-4.5 277.31-4.5L277.31-4.5Q280.06-4.5 280.06-7.7L280.06-7.7 280.06-13.05 285.26-13.05 285.26-8.1Q285.26-4 283.19-1.75 281.11 0.5 277.16 0.5L277.16 0.5ZM288.56 0L288.56-35 303.56-35 303.56-30 294.06-30 294.06-20.75 301.61-20.75 301.61-15.75 294.06-15.75 294.06-5 303.56-5 303.56 0 288.56 0ZM306.96 6L308.76 0 306.96 0 306.96-5.3 312.26-5.3 312.26-0.55 309.51 6 306.96 6ZM324.35 0L324.35-35 332.5-35Q336.75-35 338.7-33.02 340.65-31.05 340.65-26.95L340.65-26.95 340.65-24.8Q340.65-19.35 337.05-17.9L337.05-17.9 337.05-17.8Q339.05-17.2 339.88-15.35 340.7-13.5 340.7-10.4L340.7-10.4 340.7-4.25Q340.7-2.75 340.8-1.83 340.9-0.9 341.3 0L341.3 0 335.7 0Q335.4-0.85 335.3-1.6 335.2-2.35 335.2-4.3L335.2-4.3 335.2-10.7Q335.2-13.1 334.43-14.05 333.65-15 331.75-15L331.75-15 329.85-15 329.85 0 324.35 0ZM329.85-20L331.85-20Q333.5-20 334.33-20.85 335.15-21.7 335.15-23.7L335.15-23.7 335.15-26.4Q335.15-28.3 334.48-29.15 333.8-30 332.35-30L332.35-30 329.85-30 329.85-20ZM344.5 0L344.5-35 359.5-35 359.5-30 350-30 350-20.75 357.55-20.75 357.55-15.75 350-15.75 350-5 359.5-5 359.5 0 344.5 0ZM369.9 0.5Q365.9 0.5 363.85-1.78 361.8-4.05 361.8-8.3L361.8-8.3 361.8-10.3 367-10.3 367-7.9Q367-4.5 369.85-4.5L369.85-4.5Q371.25-4.5 371.97-5.33 372.7-6.15 372.7-8L372.7-8Q372.7-10.2 371.7-11.88 370.7-13.55 368-15.9L368-15.9Q364.6-18.9 363.25-21.33 361.9-23.75 361.9-26.8L361.9-26.8Q361.9-30.95 364-33.23 366.1-35.5 370.1-35.5L370.1-35.5Q374.05-35.5 376.07-33.23 378.1-30.95 378.1-26.7L378.1-26.7 378.1-25.25 372.9-25.25 372.9-27.05Q372.9-28.85 372.2-29.68 371.5-30.5 370.15-30.5L370.15-30.5Q367.4-30.5 367.4-27.15L367.4-27.15Q367.4-25.25 368.42-23.6 369.45-21.95 372.15-19.6L372.15-19.6Q375.6-16.6 376.9-14.15 378.2-11.7 378.2-8.4L378.2-8.4Q378.2-4.1 376.07-1.8 373.95 0.5 369.9 0.5L369.9 0.5ZM389.3 0.5Q385.25 0.5 383.1-1.8 380.94-4.1 380.94-8.3L380.94-8.3 380.94-26.7Q380.94-30.9 383.1-33.2 385.25-35.5 389.3-35.5L389.3-35.5Q393.35-35.5 395.5-33.2 397.65-30.9 397.65-26.7L397.65-26.7 397.65-8.3Q397.65-4.1 395.5-1.8 393.35 0.5 389.3 0.5L389.3 0.5ZM389.3-4.5Q392.15-4.5 392.15-7.95L392.15-7.95 392.15-27.05Q392.15-30.5 389.3-30.5L389.3-30.5Q386.44-30.5 386.44-27.05L386.44-27.05 386.44-7.95Q386.44-4.5 389.3-4.5L389.3-4.5ZM401.34 0L401.34-35 406.84-35 406.84-5 415.89-5 415.89 0 401.34 0ZM426.54 0.5Q422.54 0.5 420.44-1.78 418.34-4.05 418.34-8.3L418.34-8.3 418.34-35 423.84-35 423.84-7.9Q423.84-6.1 424.56-5.3 425.29-4.5 426.64-4.5L426.64-4.5Q427.99-4.5 428.72-5.3 429.44-6.1 429.44-7.9L429.44-7.9 429.44-35 434.74-35 434.74-8.3Q434.74-4.05 432.64-1.78 430.54 0.5 426.54 0.5L426.54 0.5ZM442.94 0L442.94-30 437.19-30 437.19-35 454.19-35 454.19-30 448.44-30 448.44 0 442.94 0ZM456.84 0L456.84-35 462.34-35 462.34 0 456.84 0ZM474.38 0.5Q470.33 0.5 468.18-1.8 466.03-4.1 466.03-8.3L466.03-8.3 466.03-26.7Q466.03-30.9 468.18-33.2 470.33-35.5 474.38-35.5L474.38-35.5Q478.43-35.5 480.58-33.2 482.73-30.9 482.73-26.7L482.73-26.7 482.73-8.3Q482.73-4.1 480.58-1.8 478.43 0.5 474.38 0.5L474.38 0.5ZM474.38-4.5Q477.23-4.5 477.23-7.95L477.23-7.95 477.23-27.05Q477.23-30.5 474.38-30.5L474.38-30.5Q471.53-30.5 471.53-27.05L471.53-27.05 471.53-7.95Q471.53-4.5 474.38-4.5L474.38-4.5ZM486.43 0L486.43-35 493.33-35 498.68-14.05 498.78-14.05 498.78-35 503.68-35 503.68 0 498.03 0 491.43-25.55 491.33-25.55 491.33 0 486.43 0Z" opacity="1" transform="matrix(1,0,0,1,0,0)" fill="black" class="slogan-text-1" id="SvgjsPath1031"></path></svg></g></svg></g></svg></g></svg></g><g><svg viewBox="0 0 160.07152010659706 207.8014307312602" height="207.8014307312602" width="160.07152010659706"><g><svg xmlns="http://www.w3.org/2000/svg" xmlns:xlink="http://www.w3.org/1999/xlink" version="1.1" x="0" y="0" viewBox="0 0 77.031 100" enable-background="new 0 0 77.031 100" xml:space="preserve" width="160.07152010659706" height="207.8014307312602" class="icon-icon-0" data-fill-palette-color="accent" id="SvgjsSvg1030"><path d="M48.958 0H0v100h77.031V29.141L48.958 0zM50.273 13.047l13.216 13.724H50.273V13.047zM8.105 91.901V8.112h36.087v24.74h24.733v59.05H8.105z" fill="black"></path></svg></g></svg></g></svg></g><defs><mask></mask></defs></svg><rect width="395.52" height="141.54823147522978" fill="black" stroke="none" visibility="hidden"></rect></g></mask><mask><g id="SvgjsG1029"><svg viewBox="0 0 395.52 141.54823147522978" height="141.54823147522978" width="395.52"><g><svg viewBox="0 0 580.6474657170888 207.8014307312602" height="141.54823147522978" width="395.52"><g transform="matrix(1,0,0,1,185.12746571708885,28.71930048456636)"><svg viewBox="0 0 395.52 150.3628297621275" height="150.3628297621275" width="395.52"><g id="SvgjsG1028"><svg viewBox="0 0 395.52 150.3628297621275" height="150.3628297621275" width="395.52" id="SvgjsSvg1027"><g><svg viewBox="0 0 395.52 106.13508196721311" height="106.13508196721311" width="395.52"><g transform="matrix(1,0,0,1,0,0)"><svg width="395.52" viewBox="1.03 -40.6 153.38 41.160000000000004" height="106.13508196721311" data-palette-color="url(#aaa6a119-aa8e-4b08-87a4-6044955d426a)"><g class="wordmark-text-0" data-fill-palette-color="primary" id="SvgjsG1026"></g></svg></g></svg></g><g transform="matrix(1,0,0,1,0,131.19102757770492)"><svg viewBox="0 0 232.209792 19.17180218442256" height="19.17180218442256" width="232.209792"><g transform="matrix(1,0,0,1,0,0)"><svg width="232.209792" viewBox="1.1 -35.5 502.58 41.5" height="19.17180218442256" data-palette-color="url(#443f57ad-e9c7-4e0f-b08a-7cf2d822c682)"><path d="M9.2 0.5Q5.2 0.5 3.15-1.78 1.1-4.05 1.1-8.3L1.1-8.3 1.1-10.3 6.3-10.3 6.3-7.9Q6.3-4.5 9.15-4.5L9.15-4.5Q10.55-4.5 11.28-5.33 12-6.15 12-8L12-8Q12-10.2 11-11.88 10-13.55 7.3-15.9L7.3-15.9Q3.9-18.9 2.55-21.33 1.2-23.75 1.2-26.8L1.2-26.8Q1.2-30.95 3.3-33.23 5.4-35.5 9.4-35.5L9.4-35.5Q13.35-35.5 15.38-33.23 17.4-30.95 17.4-26.7L17.4-26.7 17.4-25.25 12.2-25.25 12.2-27.05Q12.2-28.85 11.5-29.68 10.8-30.5 9.45-30.5L9.45-30.5Q6.7-30.5 6.7-27.15L6.7-27.15Q6.7-25.25 7.73-23.6 8.75-21.95 11.45-19.6L11.45-19.6Q14.9-16.6 16.2-14.15 17.5-11.7 17.5-8.4L17.5-8.4Q17.5-4.1 15.38-1.8 13.25 0.5 9.2 0.5L9.2 0.5ZM28.6 0.5Q24.55 0.5 22.4-1.8 20.25-4.1 20.25-8.3L20.25-8.3 20.25-26.7Q20.25-30.9 22.4-33.2 24.55-35.5 28.6-35.5L28.6-35.5Q32.65-35.5 34.8-33.2 36.95-30.9 36.95-26.7L36.95-26.7 36.95-8.3Q36.95-4.1 34.8-1.8 32.65 0.5 28.6 0.5L28.6 0.5ZM28.6-4.5Q31.45-4.5 31.45-7.95L31.45-7.95 31.45-27.05Q31.45-30.5 28.6-30.5L28.6-30.5Q25.75-30.5 25.75-27.05L25.75-27.05 25.75-7.95Q25.75-4.5 28.6-4.5L28.6-4.5ZM40.64 0L40.64-35 55.2-35 55.2-30 46.14-30 46.14-20.25 53.24-20.25 53.24-15.25 46.14-15.25 46.14 0 40.64 0ZM62.64 0L62.64-30 56.89-30 56.89-35 73.89-35 73.89-30 68.14-30 68.14 0 62.64 0ZM78.99 0L75.44-35 80.74-35 83.19-8.1 83.29-8.1 85.89-35 91.89-35 94.49-8.1 94.59-8.1 97.04-35 101.79-35 98.24 0 91.39 0 88.89-23.6 88.79-23.6 86.29 0 78.99 0ZM102.44 0L108.14-35 115.59-35 121.29 0 115.79 0 114.79-6.95 114.79-6.85 108.54-6.85 107.54 0 102.44 0ZM109.19-11.6L114.14-11.6 111.69-28.9 111.59-28.9 109.19-11.6ZM123.94 0L123.94-35 132.09-35Q136.34-35 138.29-33.02 140.24-31.05 140.24-26.95L140.24-26.95 140.24-24.8Q140.24-19.35 136.64-17.9L136.64-17.9 136.64-17.8Q138.64-17.2 139.46-15.35 140.29-13.5 140.29-10.4L140.29-10.4 140.29-4.25Q140.29-2.75 140.39-1.83 140.49-0.9 140.89 0L140.89 0 135.29 0Q134.99-0.85 134.89-1.6 134.79-2.35 134.79-4.3L134.79-4.3 134.79-10.7Q134.79-13.1 134.01-14.05 133.24-15 131.34-15L131.34-15 129.44-15 129.44 0 123.94 0ZM129.44-20L131.44-20Q133.09-20 133.91-20.85 134.74-21.7 134.74-23.7L134.74-23.7 134.74-26.4Q134.74-28.3 134.06-29.15 133.39-30 131.94-30L131.94-30 129.44-30 129.44-20ZM144.08 0L144.08-35 159.08-35 159.08-30 149.58-30 149.58-20.75 157.13-20.75 157.13-15.75 149.58-15.75 149.58-5 159.08-5 159.08 0 144.08 0ZM162.48 6L164.28 0 162.48 0 162.48-5.3 167.78-5.3 167.78-0.55 165.03 6 162.48 6ZM179.88 0L179.88-35 194.43-35 194.43-30 185.38-30 185.38-20.25 192.48-20.25 192.48-15.25 185.38-15.25 185.38 0 179.88 0ZM197.07 0L197.07-35 202.57-35 202.57 0 197.07 0ZM206.67 0L206.67-35 213.57-35 218.92-14.05 219.02-14.05 219.02-35 223.92-35 223.92 0 218.27 0 211.67-25.55 211.57-25.55 211.57 0 206.67 0ZM226.57 0L232.27-35 239.72-35 245.42 0 239.92 0 238.92-6.95 238.92-6.85 232.67-6.85 231.67 0 226.57 0ZM233.32-11.6L238.27-11.6 235.82-28.9 235.72-28.9 233.32-11.6ZM248.07 0L248.07-35 254.97-35 260.32-14.05 260.42-14.05 260.42-35 265.32-35 265.32 0 259.67 0 253.07-25.55 252.97-25.55 252.97 0 248.07 0ZM277.16 0.5Q273.21 0.5 271.14-1.75 269.06-4 269.06-8.1L269.06-8.1 269.06-26.9Q269.06-31 271.14-33.25 273.21-35.5 277.16-35.5L277.16-35.5Q281.11-35.5 283.19-33.25 285.26-31 285.26-26.9L285.26-26.9 285.26-23.2 280.06-23.2 280.06-27.25Q280.06-30.5 277.31-30.5L277.31-30.5Q274.56-30.5 274.56-27.25L274.56-27.25 274.56-7.7Q274.56-4.5 277.31-4.5L277.31-4.5Q280.06-4.5 280.06-7.7L280.06-7.7 280.06-13.05 285.26-13.05 285.26-8.1Q285.26-4 283.19-1.75 281.11 0.5 277.16 0.5L277.16 0.5ZM288.56 0L288.56-35 303.56-35 303.56-30 294.06-30 294.06-20.75 301.61-20.75 301.61-15.75 294.06-15.75 294.06-5 303.56-5 303.56 0 288.56 0ZM306.96 6L308.76 0 306.96 0 306.96-5.3 312.26-5.3 312.26-0.55 309.51 6 306.96 6ZM324.35 0L324.35-35 332.5-35Q336.75-35 338.7-33.02 340.65-31.05 340.65-26.95L340.65-26.95 340.65-24.8Q340.65-19.35 337.05-17.9L337.05-17.9 337.05-17.8Q339.05-17.2 339.88-15.35 340.7-13.5 340.7-10.4L340.7-10.4 340.7-4.25Q340.7-2.75 340.8-1.83 340.9-0.9 341.3 0L341.3 0 335.7 0Q335.4-0.85 335.3-1.6 335.2-2.35 335.2-4.3L335.2-4.3 335.2-10.7Q335.2-13.1 334.43-14.05 333.65-15 331.75-15L331.75-15 329.85-15 329.85 0 324.35 0ZM329.85-20L331.85-20Q333.5-20 334.33-20.85 335.15-21.7 335.15-23.7L335.15-23.7 335.15-26.4Q335.15-28.3 334.48-29.15 333.8-30 332.35-30L332.35-30 329.85-30 329.85-20ZM344.5 0L344.5-35 359.5-35 359.5-30 350-30 350-20.75 357.55-20.75 357.55-15.75 350-15.75 350-5 359.5-5 359.5 0 344.5 0ZM369.9 0.5Q365.9 0.5 363.85-1.78 361.8-4.05 361.8-8.3L361.8-8.3 361.8-10.3 367-10.3 367-7.9Q367-4.5 369.85-4.5L369.85-4.5Q371.25-4.5 371.97-5.33 372.7-6.15 372.7-8L372.7-8Q372.7-10.2 371.7-11.88 370.7-13.55 368-15.9L368-15.9Q364.6-18.9 363.25-21.33 361.9-23.75 361.9-26.8L361.9-26.8Q361.9-30.95 364-33.23 366.1-35.5 370.1-35.5L370.1-35.5Q374.05-35.5 376.07-33.23 378.1-30.95 378.1-26.7L378.1-26.7 378.1-25.25 372.9-25.25 372.9-27.05Q372.9-28.85 372.2-29.68 371.5-30.5 370.15-30.5L370.15-30.5Q367.4-30.5 367.4-27.15L367.4-27.15Q367.4-25.25 368.42-23.6 369.45-21.95 372.15-19.6L372.15-19.6Q375.6-16.6 376.9-14.15 378.2-11.7 378.2-8.4L378.2-8.4Q378.2-4.1 376.07-1.8 373.95 0.5 369.9 0.5L369.9 0.5ZM389.3 0.5Q385.25 0.5 383.1-1.8 380.94-4.1 380.94-8.3L380.94-8.3 380.94-26.7Q380.94-30.9 383.1-33.2 385.25-35.5 389.3-35.5L389.3-35.5Q393.35-35.5 395.5-33.2 397.65-30.9 397.65-26.7L397.65-26.7 397.65-8.3Q397.65-4.1 395.5-1.8 393.35 0.5 389.3 0.5L389.3 0.5ZM389.3-4.5Q392.15-4.5 392.15-7.95L392.15-7.95 392.15-27.05Q392.15-30.5 389.3-30.5L389.3-30.5Q386.44-30.5 386.44-27.05L386.44-27.05 386.44-7.95Q386.44-4.5 389.3-4.5L389.3-4.5ZM401.34 0L401.34-35 406.84-35 406.84-5 415.89-5 415.89 0 401.34 0ZM426.54 0.5Q422.54 0.5 420.44-1.78 418.34-4.05 418.34-8.3L418.34-8.3 418.34-35 423.84-35 423.84-7.9Q423.84-6.1 424.56-5.3 425.29-4.5 426.64-4.5L426.64-4.5Q427.99-4.5 428.72-5.3 429.44-6.1 429.44-7.9L429.44-7.9 429.44-35 434.74-35 434.74-8.3Q434.74-4.05 432.64-1.78 430.54 0.5 426.54 0.5L426.54 0.5ZM442.94 0L442.94-30 437.19-30 437.19-35 454.19-35 454.19-30 448.44-30 448.44 0 442.94 0ZM456.84 0L456.84-35 462.34-35 462.34 0 456.84 0ZM474.38 0.5Q470.33 0.5 468.18-1.8 466.03-4.1 466.03-8.3L466.03-8.3 466.03-26.7Q466.03-30.9 468.18-33.2 470.33-35.5 474.38-35.5L474.38-35.5Q478.43-35.5 480.58-33.2 482.73-30.9 482.73-26.7L482.73-26.7 482.73-8.3Q482.73-4.1 480.58-1.8 478.43 0.5 474.38 0.5L474.38 0.5ZM474.38-4.5Q477.23-4.5 477.23-7.95L477.23-7.95 477.23-27.05Q477.23-30.5 474.38-30.5L474.38-30.5Q471.53-30.5 471.53-27.05L471.53-27.05 471.53-7.95Q471.53-4.5 474.38-4.5L474.38-4.5ZM486.43 0L486.43-35 493.33-35 498.68-14.05 498.78-14.05 498.78-35 503.68-35 503.68 0 498.03 0 491.43-25.55 491.33-25.55 491.33 0 486.43 0Z" opacity="1" transform="matrix(1,0,0,1,0,0)" fill="black" class="slogan-text-1" id="SvgjsPath1025"></path></svg></g></svg></g></svg></g></svg></g><g><svg viewBox="0 0 160.07152010659706 207.8014307312602" height="207.8014307312602" width="160.07152010659706"><g><svg xmlns="http://www.w3.org/2000/svg" xmlns:xlink="http://www.w3.org/1999/xlink" version="1.1" x="0" y="0" viewBox="0 0 77.031 100" enable-background="new 0 0 77.031 100" xml:space="preserve" width="160.07152010659706" height="207.8014307312602" class="icon-icon-0" data-fill-palette-color="accent" id="SvgjsSvg1024"><path d="M48.958 0H0v100h77.031V29.141L48.958 0zM50.273 13.047l13.216 13.724H50.273V13.047zM8.105 91.901V8.112h36.087v24.74h24.733v59.05H8.105z" fill="black"></path></svg></g></svg></g></svg></g><defs><mask></mask></defs><mask><g id="SvgjsG1023"><svg viewBox="0 0 395.52 141.54823147522978" height="141.54823147522978" width="395.52"><g><svg viewBox="0 0 580.6474657170888 207.8014307312602" height="141.54823147522978" width="395.52"><g transform="matrix(1,0,0,1,185.12746571708885,28.71930048456636)"><svg viewBox="0 0 395.52 150.3628297621275" height="150.3628297621275" width="395.52"><g id="SvgjsG1022"><svg viewBox="0 0 395.52 150.3628297621275" height="150.3628297621275" width="395.52" id="SvgjsSvg1021"><g><svg viewBox="0 0 395.52 106.13508196721311" height="106.13508196721311" width="395.52"><g transform="matrix(1,0,0,1,0,0)"><svg width="395.52" viewBox="1.03 -40.6 153.38 41.160000000000004" height="106.13508196721311" data-palette-color="url(#aaa6a119-aa8e-4b08-87a4-6044955d426a)"><g class="wordmark-text-0" data-fill-palette-color="primary" id="SvgjsG1020"><path d="M4.15-2.59L4.15-20.36 1.03-20.92 1.03-22.95 8.11-24.73 8.11-18.51Q13.72-24.73 16.55-24.73L16.55-24.73Q18.87-24.73 20.83-22.88L20.83-22.88 19.56-18.92 18.41-18.92Q18.41-20.12 16.58-20.7L16.58-20.7Q16.06-20.85 15.55-20.85L15.55-20.85Q12.96-20.85 8.11-15.65L8.11-15.65 8.11-2.59 12.94-2.03 12.94 0 1.03 0 1.03-2.03 4.15-2.59ZM42.36-5.59L42.36-5.59 43.75-4Q39.87-0.51 36.23 0.37L36.23 0.37Q35.42 0.56 34.64 0.56L34.64 0.56Q29.27 0.56 25.9-2.83L25.9-2.83Q22.56-6.15 22.56-11.5L22.56-11.5Q22.56-16.82 25.71-20.61L25.71-20.61Q29.17-24.73 34.71-24.73L34.71-24.73Q38.55-24.73 41.18-21.97L41.18-21.97Q43.99-19.09 43.99-14.48L43.99-14.48 42.84-13.45 26.93-12.3Q26.98-7.86 29.81-5.2L29.81-5.2Q32.35-2.86 35.72-2.86 39.08-2.86 42.36-5.59ZM27.1-14.6L27.1-14.6 39.65-15.75Q39.48-19.8 36.52-21.31L36.52-21.31Q35.47-21.85 33.84-21.85 32.2-21.85 30.92-21.04 29.64-20.24 28.81-19.09L28.81-19.09Q27.22-16.92 27.1-14.6ZM67.62-5.59L67.62-5.59 69.01-4Q65.13-0.51 61.49 0.37L61.49 0.37Q60.69 0.56 59.91 0.56L59.91 0.56Q54.56 0.56 51.26-2.83L51.26-2.83Q48.07-6.13 48.07-11.5L48.07-11.5Q48.07-16.87 51.26-20.61L51.26-20.61Q54.83-24.73 60.83-24.73L60.83-24.73Q64.84-24.73 67.91-23.41L67.91-23.41 67.33-18.51 65.79-18.51Q65.79-20.97 62.84-21.63L62.84-21.63Q61.91-21.85 60.25-21.85 58.59-21.85 56.99-21.08 55.39-20.31 54.37-19.04L54.37-19.04Q52.34-16.53 52.34-12.89L52.34-12.89Q52.34-8.42 54.54-5.74L54.54-5.74Q56.9-2.86 60.63-2.86 64.35-2.86 67.62-5.59ZM85.44-24.73L85.44-24.73Q88.49-24.73 91.52-23.54L91.52-23.54 91.52-36.06 87.79-36.82 87.79-38.79 95.48-40.6 95.48-3.91Q95.48-2.81 96.71-2.81 97.94-2.81 99.8-3.56L99.8-3.56 100.31-1.27Q96.82 0.56 95.09 0.56L95.09 0.56Q92.57 0.56 91.79-1.07L91.79-1.07Q91.52-1.66 91.52-2.47L91.52-2.47Q89.69-0.85 87.61-0.15 85.54 0.56 83.31 0.56 81.07 0.56 79-0.29 76.92-1.15 75.53-2.73L75.53-2.73Q72.82-5.83 72.82-11.5L72.82-11.5Q72.82-16.92 76.02-20.61L76.02-20.61Q79.56-24.73 85.44-24.73ZM85.44-2.86L85.44-2.86Q87.91-2.86 91.52-5.18L91.52-5.18 91.52-19.04Q89.42-21.85 84.83-21.85L84.83-21.85Q81.29-21.85 79.09-18.99L79.09-18.99Q77.04-16.28 77.04-12.01L77.04-12.01Q77.04-8.13 79-5.64L79-5.64Q81.14-2.86 85.44-2.86ZM102.46-11.87L102.46-11.87Q102.46-14.67 103.42-17.09 104.38-19.51 106.04-21.19L106.04-21.19Q109.46-24.73 114.47-24.73L114.47-24.73Q120.28-24.73 123.55-21.29L123.55-21.29Q126.65-17.99 126.65-12.67L126.65-12.67Q126.65-6.74 123.13-3.03L123.13-3.03Q119.72 0.56 114.69 0.56L114.69 0.56Q108.95 0.56 105.61-2.98L105.61-2.98Q102.46-6.3 102.46-11.87ZM108.71-19.15Q107.73-17.9 107.23-16.21 106.73-14.53 106.73-12.56 106.73-10.6 107.18-8.73 107.63-6.86 108.58-5.42L108.58-5.42Q110.68-2.29 114.64-2.29L114.64-2.29Q118.35-2.29 120.4-4.74L120.4-4.74Q122.43-7.13 122.43-11.21L122.43-11.21Q122.43-18.43 118.3-20.92L118.3-20.92Q116.76-21.85 114.66-21.85 112.56-21.85 111.12-21.13 109.68-20.41 108.71-19.15ZM152.21-21.56L143.15 0 139.76 0 130.6-21.56 128.41-22.12 128.41-24.15 137.9-24.15 137.9-22.12 135.09-21.56 142.37-3.96 149.23-21.68 146.47-22.12 146.47-24.15 154.41-24.15 154.41-22.12 152.21-21.56Z" fill="black"></path></g></svg></g></svg></g><g transform="matrix(1,0,0,1,0,131.19102757770492)"><svg viewBox="0 0 232.209792 19.17180218442256" height="19.17180218442256" width="232.209792"><g transform="matrix(1,0,0,1,0,0)"><svg width="232.209792" viewBox="1.1 -35.5 502.58 41.5" height="19.17180218442256" data-palette-color="url(#443f57ad-e9c7-4e0f-b08a-7cf2d822c682)"><path d="M9.2 0.5Q5.2 0.5 3.15-1.78 1.1-4.05 1.1-8.3L1.1-8.3 1.1-10.3 6.3-10.3 6.3-7.9Q6.3-4.5 9.15-4.5L9.15-4.5Q10.55-4.5 11.28-5.33 12-6.15 12-8L12-8Q12-10.2 11-11.88 10-13.55 7.3-15.9L7.3-15.9Q3.9-18.9 2.55-21.33 1.2-23.75 1.2-26.8L1.2-26.8Q1.2-30.95 3.3-33.23 5.4-35.5 9.4-35.5L9.4-35.5Q13.35-35.5 15.38-33.23 17.4-30.95 17.4-26.7L17.4-26.7 17.4-25.25 12.2-25.25 12.2-27.05Q12.2-28.85 11.5-29.68 10.8-30.5 9.45-30.5L9.45-30.5Q6.7-30.5 6.7-27.15L6.7-27.15Q6.7-25.25 7.73-23.6 8.75-21.95 11.45-19.6L11.45-19.6Q14.9-16.6 16.2-14.15 17.5-11.7 17.5-8.4L17.5-8.4Q17.5-4.1 15.38-1.8 13.25 0.5 9.2 0.5L9.2 0.5ZM28.6 0.5Q24.55 0.5 22.4-1.8 20.25-4.1 20.25-8.3L20.25-8.3 20.25-26.7Q20.25-30.9 22.4-33.2 24.55-35.5 28.6-35.5L28.6-35.5Q32.65-35.5 34.8-33.2 36.95-30.9 36.95-26.7L36.95-26.7 36.95-8.3Q36.95-4.1 34.8-1.8 32.65 0.5 28.6 0.5L28.6 0.5ZM28.6-4.5Q31.45-4.5 31.45-7.95L31.45-7.95 31.45-27.05Q31.45-30.5 28.6-30.5L28.6-30.5Q25.75-30.5 25.75-27.05L25.75-27.05 25.75-7.95Q25.75-4.5 28.6-4.5L28.6-4.5ZM40.64 0L40.64-35 55.2-35 55.2-30 46.14-30 46.14-20.25 53.24-20.25 53.24-15.25 46.14-15.25 46.14 0 40.64 0ZM62.64 0L62.64-30 56.89-30 56.89-35 73.89-35 73.89-30 68.14-30 68.14 0 62.64 0ZM78.99 0L75.44-35 80.74-35 83.19-8.1 83.29-8.1 85.89-35 91.89-35 94.49-8.1 94.59-8.1 97.04-35 101.79-35 98.24 0 91.39 0 88.89-23.6 88.79-23.6 86.29 0 78.99 0ZM102.44 0L108.14-35 115.59-35 121.29 0 115.79 0 114.79-6.95 114.79-6.85 108.54-6.85 107.54 0 102.44 0ZM109.19-11.6L114.14-11.6 111.69-28.9 111.59-28.9 109.19-11.6ZM123.94 0L123.94-35 132.09-35Q136.34-35 138.29-33.02 140.24-31.05 140.24-26.95L140.24-26.95 140.24-24.8Q140.24-19.35 136.64-17.9L136.64-17.9 136.64-17.8Q138.64-17.2 139.46-15.35 140.29-13.5 140.29-10.4L140.29-10.4 140.29-4.25Q140.29-2.75 140.39-1.83 140.49-0.9 140.89 0L140.89 0 135.29 0Q134.99-0.85 134.89-1.6 134.79-2.35 134.79-4.3L134.79-4.3 134.79-10.7Q134.79-13.1 134.01-14.05 133.24-15 131.34-15L131.34-15 129.44-15 129.44 0 123.94 0ZM129.44-20L131.44-20Q133.09-20 133.91-20.85 134.74-21.7 134.74-23.7L134.74-23.7 134.74-26.4Q134.74-28.3 134.06-29.15 133.39-30 131.94-30L131.94-30 129.44-30 129.44-20ZM144.08 0L144.08-35 159.08-35 159.08-30 149.58-30 149.58-20.75 157.13-20.75 157.13-15.75 149.58-15.75 149.58-5 159.08-5 159.08 0 144.08 0ZM162.48 6L164.28 0 162.48 0 162.48-5.3 167.78-5.3 167.78-0.55 165.03 6 162.48 6ZM179.88 0L179.88-35 194.43-35 194.43-30 185.38-30 185.38-20.25 192.48-20.25 192.48-15.25 185.38-15.25 185.38 0 179.88 0ZM197.07 0L197.07-35 202.57-35 202.57 0 197.07 0ZM206.67 0L206.67-35 213.57-35 218.92-14.05 219.02-14.05 219.02-35 223.92-35 223.92 0 218.27 0 211.67-25.55 211.57-25.55 211.57 0 206.67 0ZM226.57 0L232.27-35 239.72-35 245.42 0 239.92 0 238.92-6.95 238.92-6.85 232.67-6.85 231.67 0 226.57 0ZM233.32-11.6L238.27-11.6 235.82-28.9 235.72-28.9 233.32-11.6ZM248.07 0L248.07-35 254.97-35 260.32-14.05 260.42-14.05 260.42-35 265.32-35 265.32 0 259.67 0 253.07-25.55 252.97-25.55 252.97 0 248.07 0ZM277.16 0.5Q273.21 0.5 271.14-1.75 269.06-4 269.06-8.1L269.06-8.1 269.06-26.9Q269.06-31 271.14-33.25 273.21-35.5 277.16-35.5L277.16-35.5Q281.11-35.5 283.19-33.25 285.26-31 285.26-26.9L285.26-26.9 285.26-23.2 280.06-23.2 280.06-27.25Q280.06-30.5 277.31-30.5L277.31-30.5Q274.56-30.5 274.56-27.25L274.56-27.25 274.56-7.7Q274.56-4.5 277.31-4.5L277.31-4.5Q280.06-4.5 280.06-7.7L280.06-7.7 280.06-13.05 285.26-13.05 285.26-8.1Q285.26-4 283.19-1.75 281.11 0.5 277.16 0.5L277.16 0.5ZM288.56 0L288.56-35 303.56-35 303.56-30 294.06-30 294.06-20.75 301.61-20.75 301.61-15.75 294.06-15.75 294.06-5 303.56-5 303.56 0 288.56 0ZM306.96 6L308.76 0 306.96 0 306.96-5.3 312.26-5.3 312.26-0.55 309.51 6 306.96 6ZM324.35 0L324.35-35 332.5-35Q336.75-35 338.7-33.02 340.65-31.05 340.65-26.95L340.65-26.95 340.65-24.8Q340.65-19.35 337.05-17.9L337.05-17.9 337.05-17.8Q339.05-17.2 339.88-15.35 340.7-13.5 340.7-10.4L340.7-10.4 340.7-4.25Q340.7-2.75 340.8-1.83 340.9-0.9 341.3 0L341.3 0 335.7 0Q335.4-0.85 335.3-1.6 335.2-2.35 335.2-4.3L335.2-4.3 335.2-10.7Q335.2-13.1 334.43-14.05 333.65-15 331.75-15L331.75-15 329.85-15 329.85 0 324.35 0ZM329.85-20L331.85-20Q333.5-20 334.33-20.85 335.15-21.7 335.15-23.7L335.15-23.7 335.15-26.4Q335.15-28.3 334.48-29.15 333.8-30 332.35-30L332.35-30 329.85-30 329.85-20ZM344.5 0L344.5-35 359.5-35 359.5-30 350-30 350-20.75 357.55-20.75 357.55-15.75 350-15.75 350-5 359.5-5 359.5 0 344.5 0ZM369.9 0.5Q365.9 0.5 363.85-1.78 361.8-4.05 361.8-8.3L361.8-8.3 361.8-10.3 367-10.3 367-7.9Q367-4.5 369.85-4.5L369.85-4.5Q371.25-4.5 371.97-5.33 372.7-6.15 372.7-8L372.7-8Q372.7-10.2 371.7-11.88 370.7-13.55 368-15.9L368-15.9Q364.6-18.9 363.25-21.33 361.9-23.75 361.9-26.8L361.9-26.8Q361.9-30.95 364-33.23 366.1-35.5 370.1-35.5L370.1-35.5Q374.05-35.5 376.07-33.23 378.1-30.95 378.1-26.7L378.1-26.7 378.1-25.25 372.9-25.25 372.9-27.05Q372.9-28.85 372.2-29.68 371.5-30.5 370.15-30.5L370.15-30.5Q367.4-30.5 367.4-27.15L367.4-27.15Q367.4-25.25 368.42-23.6 369.45-21.95 372.15-19.6L372.15-19.6Q375.6-16.6 376.9-14.15 378.2-11.7 378.2-8.4L378.2-8.4Q378.2-4.1 376.07-1.8 373.95 0.5 369.9 0.5L369.9 0.5ZM389.3 0.5Q385.25 0.5 383.1-1.8 380.94-4.1 380.94-8.3L380.94-8.3 380.94-26.7Q380.94-30.9 383.1-33.2 385.25-35.5 389.3-35.5L389.3-35.5Q393.35-35.5 395.5-33.2 397.65-30.9 397.65-26.7L397.65-26.7 397.65-8.3Q397.65-4.1 395.5-1.8 393.35 0.5 389.3 0.5L389.3 0.5ZM389.3-4.5Q392.15-4.5 392.15-7.95L392.15-7.95 392.15-27.05Q392.15-30.5 389.3-30.5L389.3-30.5Q386.44-30.5 386.44-27.05L386.44-27.05 386.44-7.95Q386.44-4.5 389.3-4.5L389.3-4.5ZM401.34 0L401.34-35 406.84-35 406.84-5 415.89-5 415.89 0 401.34 0ZM426.54 0.5Q422.54 0.5 420.44-1.78 418.34-4.05 418.34-8.3L418.34-8.3 418.34-35 423.84-35 423.84-7.9Q423.84-6.1 424.56-5.3 425.29-4.5 426.64-4.5L426.64-4.5Q427.99-4.5 428.72-5.3 429.44-6.1 429.44-7.9L429.44-7.9 429.44-35 434.74-35 434.74-8.3Q434.74-4.05 432.64-1.78 430.54 0.5 426.54 0.5L426.54 0.5ZM442.94 0L442.94-30 437.19-30 437.19-35 454.19-35 454.19-30 448.44-30 448.44 0 442.94 0ZM456.84 0L456.84-35 462.34-35 462.34 0 456.84 0ZM474.38 0.5Q470.33 0.5 468.18-1.8 466.03-4.1 466.03-8.3L466.03-8.3 466.03-26.7Q466.03-30.9 468.18-33.2 470.33-35.5 474.38-35.5L474.38-35.5Q478.43-35.5 480.58-33.2 482.73-30.9 482.73-26.7L482.73-26.7 482.73-8.3Q482.73-4.1 480.58-1.8 478.43 0.5 474.38 0.5L474.38 0.5ZM474.38-4.5Q477.23-4.5 477.23-7.95L477.23-7.95 477.23-27.05Q477.23-30.5 474.38-30.5L474.38-30.5Q471.53-30.5 471.53-27.05L471.53-27.05 471.53-7.95Q471.53-4.5 474.38-4.5L474.38-4.5ZM486.43 0L486.43-35 493.33-35 498.68-14.05 498.78-14.05 498.78-35 503.68-35 503.68 0 498.03 0 491.43-25.55 491.33-25.55 491.33 0 486.43 0Z" opacity="1" transform="matrix(1,0,0,1,0,0)" fill="black" class="slogan-text-1" id="SvgjsPath1019"></path></svg></g></svg></g></svg></g></svg></g><g><svg viewBox="0 0 160.07152010659706 207.8014307312602" height="207.8014307312602" width="160.07152010659706"><g><svg xmlns="http://www.w3.org/2000/svg" xmlns:xlink="http://www.w3.org/1999/xlink" version="1.1" x="0" y="0" viewBox="0 0 77.031 100" enable-background="new 0 0 77.031 100" xml:space="preserve" width="160.07152010659706" height="207.8014307312602" class="icon-icon-0" data-fill-palette-color="accent" id="SvgjsSvg1018"><path d="M48.958 0H0v100h77.031V29.141L48.958 0zM50.273 13.047l13.216 13.724H50.273V13.047zM8.105 91.901V8.112h36.087v24.74h24.733v59.05H8.105z" fill="black"></path></svg></g></svg></g></svg></g><defs><mask></mask></defs></svg><rect width="395.52" height="141.54823147522978" fill="black" stroke="none" visibility="hidden"></rect></g></mask></svg><rect width="395.52" height="141.54823147522978" fill="black" stroke="none" visibility="hidden"></rect></g></mask></svg><rect width="395.52" height="141.54823147522978" fill="black" stroke="none" visibility="hidden"></rect></g></mask><linearGradient x1="0" x2="1" y1="0.5" y2="0.5" id="6a6e8403-4534-4c99-a554-e4c989e4b79d"><stop stop-color="#f00b51" offset="0"></stop><stop stop-color="#730062" offset="1"></stop></linearGradient><rect width="395.52" height="141.54823147522978" fill="url(#6a6e8403-4534-4c99-a554-e4c989e4b79d)" mask="url(#65243a78-a244-4774-a4e5-e2ae40934efb)" data-fill-palette-color="accent"></rect></svg><rect width="395.52" height="141.54823147522978" fill="none" stroke="none" visibility="hidden"></rect></g></svg></g></svg>